<svg width="400" height="400" viewBox="0 0 400 400" fill="none" xmlns="http://www.w3.org/2000/svg">
<g id="avatar" clip-path="url(#clip0_820_1888)">
<g id="HairBack">
<path id="HairBack_2" d="M333.92 167.069C350.197 262.372 384.498 314.347 200 314.347C15.5021 314.347 49.8034 262.372 66.08 167.069C92.1828 14.2321 307.817 14.2321 333.92 167.069Z" fill="#5B391A"/>
</g>
<g id="Body">
<path id="Neck" d="M201.271 349.948V313.713V277.479" stroke="#C19D7B" stroke-width="60" stroke-linejoin="round"/>
<path id="Body_2" d="M127.953 400C120.692 368.419 139.411 336.182 171.471 331.471C181.501 329.997 191.582 329 200.5 329C209.418 329 219.499 329.997 229.529 331.471C261.589 336.182 280.308 368.419 273.047 400H127.953Z" fill="#075673"/>
</g>
<g id="Head">
<path id="Head_2" d="M87.6662 153.15C80.1086 121.211 104.334 90.584 137.155 90.584H262.845C295.665 90.584 319.891 121.211 312.334 153.15L292.707 236.092C285.787 265.338 265.471 289.605 237.897 301.56C213.72 312.043 186.28 312.043 162.103 301.56C134.529 289.605 114.213 265.338 107.292 236.092L87.6662 153.15Z" fill="#D5AF8C"/>
</g>
<g id="Eyes">
<g id="EyeR">
<path id="white" d="M222 173.985C222 149.151 274 150.875 274 173.985V202.015C274 226.849 222 225.125 222 202.015V173.985Z" fill="white"/>
<rect id="black" x="238" y="174" width="20" height="28" rx="10" fill="black"/>
<rect id="shine" x="238" y="174" width="9.26885" height="9.26885" rx="4.63443" fill="white"/>
</g>
<g id="EyeL">
<path id="white_2" d="M127 173.985C127 149.151 179 150.875 179 173.985V202.015C179 226.849 127 225.125 127 202.015V173.985Z" fill="white"/>
<rect id="black_2" x="143" y="174" width="20" height="28" rx="10" fill="black"/>
<rect id="shine_2" x="143" y="174" width="9.26885" height="9.26885" rx="4.63443" fill="white"/>
</g>
<g id="EyelidD">
<path id="EyelidD_2" d="M272.851 207.986C265.932 224.629 229.889 223.511 223.103 207.535C237.195 202.596 258.742 202.911 272.851 207.986Z" fill="#D5AF8C"/>
<path id="EyelidD_3" d="M177.851 207.986C170.932 224.629 134.889 223.511 128.103 207.535C142.195 202.596 163.742 202.911 177.851 207.986Z" fill="#D5AF8C"/>
</g>
<g id="EyelidU">
<path id="EyelidU_2" d="M274 173.985C274 150.875 222 149.151 222 173.985V175.675C228.04 167.959 237.441 163 248 163C258.559 163 267.96 167.959 274 175.675V173.985Z" fill="#AA8C70"/>
<path id="EyelidU_3" d="M179 173.985C179 150.875 127 149.151 127 173.985V175.675C133.04 167.959 142.441 163 153 163C163.559 163 172.96 167.959 179 175.675V173.985Z" fill="#AA8C70"/>
</g>
</g>
<g id="NoseMouth">
<path id="Mouth" d="M226.699 258C226.699 258 219.053 266.9 200 266.9C180.947 266.9 173.301 258 173.301 258" stroke="black" stroke-opacity="0.3" stroke-width="10.1711" stroke-linecap="round"/>
<path id="Nose" d="M216.528 236.521C216.528 248.091 183.472 248.091 183.472 236.521C183.472 232.278 187.333 226.642 191.323 221.95C195.929 216.535 204.071 216.535 208.676 221.95C212.666 226.642 216.528 232.278 216.528 236.521Z" fill="black" fill-opacity="0.2"/>
</g>
<g id="Eyebrows">
<g id="Eyebrows_2">
<path id="EyebrowL" d="M127 154.265C127 154.265 145.529 138.697 164.059 147.922" stroke="#613F1F" stroke-width="9.26465" stroke-linecap="round"/>
<path id="EyebrowR" d="M272.183 154.265C272.183 154.265 253.654 138.697 235.124 147.922" stroke="#613F1F" stroke-width="9.26465" stroke-linecap="round"/>
</g>
</g>
<g id="HairFront">
<path id="HairFront_2" d="M265.42 101.817C223.072 109.04 176.779 109.045 134.436 101.793C130.864 101.181 127.922 102.089 125.52 104.205C123.147 106.294 121.337 109.529 119.902 113.518C117.032 121.494 115.567 132.774 114.314 144.842C114.053 147.351 113.802 149.895 113.549 152.452C112.582 162.236 111.594 172.227 110 181.248C108.054 192.255 105.226 201.673 100.536 207.469C72.3951 168.583 71.6982 125.556 95.5679 92.1823C119.593 58.5914 168.612 34.6357 240 34.6357C275.706 34.6357 300.454 40.2865 316.729 49.8989C332.968 59.4901 340.811 73.0464 342.693 89.0119C344.579 105.017 340.477 123.479 332.719 142.818C325.158 161.666 314.145 181.293 301.908 200.204C301.445 196.632 300.996 193.124 300.557 189.688C297.309 164.301 294.558 142.796 290.27 127.429C287.79 118.543 284.774 111.618 280.783 107.172C276.752 102.682 271.74 100.74 265.42 101.817Z" fill="#613F1F" stroke="#613F1F" stroke-width="1.27139"/>
</g>
</g>
<defs>
<clipPath id="clip0_820_1888">
<rect width="400" height="400" fill="white"/>
</clipPath>
</defs>
</svg>
