<svg width="400" height="400" viewBox="0 0 400 400" fill="none" xmlns="http://www.w3.org/2000/svg">
<g clip-path="url(#clip0_820_2223)">
<path d="M99.9928 137.067C101.768 130.534 107.698 126 114.468 126H284.532C291.302 126 297.232 130.534 299.007 137.067C299.007 137.067 302.095 237.14 340.855 291.067C388.132 356.843 10.8676 356.843 58.145 291.067C96.9047 237.14 99.9928 137.067 99.9928 137.067Z" fill="#5B391A"/>
<g clip-path="url(#clip1_820_2223)">
<path d="M201.271 349.948V313.713V277.479" stroke="#C19D7B" stroke-width="60" stroke-linejoin="round"/>
<path d="M127.953 400C120.692 368.42 139.411 336.182 171.471 331.471C181.501 329.997 191.582 345.001 200.5 345.001C209.418 345.001 219.499 329.997 229.529 331.471C261.589 336.182 280.308 368.42 273.047 400H127.953Z" fill="#1594C2"/>
</g>
<path d="M200 78.5C276.761 78.5 329.414 133.226 302.707 246.092C280.625 339.413 120.07 342.35 97.2925 246.092C70.5854 133.227 123.239 78.5 200 78.5Z" fill="#D5AF8C"/>
<path d="M127 173.985C127 149.151 179 150.875 179 173.985V202.015C179 226.849 127 225.125 127 202.015V173.985Z" fill="white"/>
<rect x="143" y="174" width="20" height="28" rx="10" fill="black"/>
<rect x="143" y="174" width="9.26885" height="9.26885" rx="4.63443" fill="white"/>
<path d="M222 173.985C222 149.151 274 150.875 274 173.985V202.015C274 226.849 222 225.125 222 202.015V173.985Z" fill="white"/>
<rect x="238" y="174" width="20" height="28" rx="10" fill="black"/>
<rect x="238" y="174" width="9.26885" height="9.26885" rx="4.63443" fill="white"/>
<path d="M177.851 207.986C170.932 224.629 134.889 223.511 128.103 207.535C142.443 214.772 163.991 215.094 177.851 207.986Z" fill="#D5AF8C"/>
<path d="M272.851 207.986C265.932 224.629 229.889 223.511 223.103 207.535C237.443 214.772 258.991 215.094 272.851 207.986Z" fill="#D5AF8C"/>
<path d="M179 173.985C179 150.875 127 149.151 127 173.985V175.675C133.04 167.959 142.441 169 153 169C163.559 169 172.96 167.959 179 175.675V173.985Z" fill="#AA8C70"/>
<path d="M274 173.985C274 150.875 222 149.151 222 173.985V175.675C228.04 167.959 237.441 169 248 169C258.559 169 267.96 167.959 274 175.675V173.985Z" fill="#AA8C70"/>
<path d="M226.699 281C226.699 281 219.053 281 200 281C180.947 281 173.301 281 173.301 281" stroke="black" stroke-opacity="0.3" stroke-width="10.1711" stroke-linecap="round"/>
<path d="M216.528 236.521C216.528 248.091 183.472 248.091 183.472 236.521C183.472 232.278 187.333 226.642 191.323 221.95C195.929 216.535 204.071 216.535 208.676 221.95C212.666 226.642 216.528 232.278 216.528 236.521Z" fill="black" fill-opacity="0.2"/>
<path d="M127 154.265C127 154.265 135.128 147.436 146 145.504" stroke="#613F1F" stroke-width="9.26465" stroke-linecap="round"/>
<path d="M272 154.265C272 154.265 263.872 147.436 253 145.504" stroke="#613F1F" stroke-width="9.26465" stroke-linecap="round"/>
<path d="M98 97.9999C133.491 17.3256 265.509 17.3256 301 97.9999C308.243 114.463 312.183 135.838 314.299 155.686C315.284 164.917 302.669 166.814 298.029 158.774C297.519 157.889 297.008 157.073 296.5 156.338C278.844 130.791 245.164 101.127 196 138C120 195 88 183 88 183C88 183 79.6441 139.725 98 97.9999Z" fill="#613F1F"/>
</g>
<defs>
<clipPath id="clip0_820_2223">
<rect width="400" height="400" fill="white"/>
</clipPath>
<clipPath id="clip1_820_2223">
<rect width="400" height="400" fill="white"/>
</clipPath>
</defs>
</svg>
