<svg width="340" height="61" viewBox="0 0 340 61" fill="none" xmlns="http://www.w3.org/2000/svg">
<path d="M13.94 32.5557L11.3687 40.397H8.01123L16.49 15.4707H20.3575L28.8787 40.397H25.4362L22.7587 32.5557H13.94ZM22.1212 30.0482L19.6562 22.8657C19.125 21.2295 18.7425 19.742 18.3812 18.3182H18.275C17.9137 19.7845 17.5312 21.2932 17.0425 22.8232L14.5775 30.0482H22.1212Z" fill="#EB7233"/>
<path d="M44.7526 39.7586C43.9026 40.1836 42.0326 40.7998 39.6101 40.7998C34.2126 40.7998 30.6851 37.1236 30.6851 31.6623C30.6851 26.1373 34.4463 22.1211 40.2901 22.1211C42.2026 22.1211 43.9451 22.6098 44.8163 23.0773L44.0938 25.5848C43.2863 25.1598 42.0751 24.7348 40.2901 24.7348C36.2101 24.7348 33.9788 27.7948 33.9788 31.5136C33.9788 35.6573 36.6351 38.2073 40.2051 38.2073C42.0326 38.2073 43.2651 37.7398 44.1788 37.3573L44.7526 39.7586Z" fill="#EB7233"/>
<path d="M63.5587 35.5087C63.5587 37.3787 63.6224 38.9937 63.7074 40.3962H60.8387L60.6687 37.4637H60.5624C59.7337 38.9087 57.8424 40.7999 54.6337 40.7999C51.8287 40.7999 48.4712 39.2274 48.4712 32.9587V22.5037H51.7012V32.3849C51.7012 35.7849 52.7637 38.1224 55.6962 38.1224C57.8849 38.1224 59.3937 36.5924 60.0099 35.1262C60.1799 34.6587 60.3074 34.0849 60.3074 33.4474V22.4824H63.5374V35.5087H63.5587Z" fill="#EB7233"/>
<path d="M70.8049 32.0448C70.8687 36.4436 73.6524 38.2498 76.9249 38.2498C79.2624 38.2498 80.6862 37.8248 81.8762 37.3361L82.4499 39.6523C81.3024 40.1623 79.3262 40.7998 76.4787 40.7998C70.9749 40.7998 67.6812 37.1448 67.6812 31.7686C67.6812 26.3498 70.8687 22.1211 76.0962 22.1211C81.9399 22.1211 83.4699 27.2423 83.4699 30.5361C83.4699 31.2161 83.4274 31.7048 83.3637 32.0661H70.8049V32.0448ZM80.3249 29.7073C80.3674 27.6673 79.4749 24.4373 75.8412 24.4373C72.5262 24.4373 71.1024 27.4336 70.8474 29.7073H80.3249Z" fill="#EB7233"/>
<path d="M87.5074 28.0709C87.5074 25.9671 87.4649 24.1609 87.3586 22.5034H90.2061L90.3336 26.0096H90.4399C91.2686 23.6084 93.2449 22.0996 95.4124 22.0996C95.7736 22.0996 96.0286 22.1209 96.3261 22.1846V25.2446C95.9861 25.1809 95.6674 25.1596 95.2211 25.1596C92.9261 25.1596 91.3111 26.8809 90.8649 29.3246C90.7799 29.7709 90.7374 30.3234 90.7374 30.8334V40.3959H87.5074V28.0709Z" fill="#EB7233"/>
<path d="M114.686 14.1309V35.7846C114.686 37.3784 114.75 39.1634 114.835 40.3959H111.945L111.775 37.2934H111.69C110.691 39.2909 108.545 40.7996 105.613 40.7996C101.278 40.7996 97.9413 37.1446 97.9413 31.7046C97.92 25.7334 101.618 22.0996 105.974 22.0996C108.715 22.0996 110.564 23.3959 111.371 24.8196H111.435V14.1309H114.686ZM111.456 29.7921C111.456 29.3671 111.414 28.8359 111.329 28.4109C110.819 26.3496 109.076 24.6709 106.611 24.6709C103.233 24.6709 101.235 27.6246 101.235 31.5559C101.235 35.1896 103.041 38.2071 106.548 38.2071C108.715 38.2071 110.713 36.7409 111.308 34.2971C111.414 33.8721 111.477 33.4046 111.477 32.8946V29.7921H111.456Z" fill="#EB7233"/>
<path d="M136.298 31.2794C136.298 37.9094 131.708 40.7994 127.394 40.7994C122.549 40.7994 118.788 37.2719 118.788 31.5769C118.788 25.5844 122.719 22.0781 127.67 22.0781C132.834 22.0994 136.298 25.8181 136.298 31.2794ZM122.124 31.4919C122.124 35.4231 124.376 38.3769 127.543 38.3769C130.666 38.3769 133.004 35.4656 133.004 31.4069C133.004 28.3894 131.474 24.5431 127.606 24.5431C123.781 24.5431 122.124 28.0919 122.124 31.4919Z" fill="#EB7233"/>
<path d="M195.117 40.3959V13.0684H209.036V17.9771H200.196V24.2671H208.632V29.1759H200.196V40.3959H195.117Z" fill="#00AAE9" stroke="white" stroke-width="0.0193983" stroke-miterlimit="10"/>
<path d="M233.134 19.8892V40.3955H228.607V37.6117H228.544C227.8 38.653 226.78 39.503 225.484 40.1192C224.187 40.7355 222.891 41.0542 221.595 41.0542C220.065 41.0542 218.662 40.7567 217.366 40.1617C216.07 39.5667 214.965 38.7167 214.051 37.6117C212.351 35.5717 211.48 33.0855 211.48 30.153C211.48 29.2392 211.565 28.3467 211.735 27.4755C211.905 26.6042 212.181 25.7967 212.564 25.0317C212.946 24.288 213.456 23.523 214.115 22.7792C215.156 21.568 216.304 20.6755 217.579 20.1017C218.854 19.528 220.235 19.2305 221.744 19.2305C223.146 19.2305 224.442 19.528 225.632 20.1442C226.822 20.7392 227.821 21.6317 228.629 22.7792V19.8892H233.134ZM228.437 30.1105C228.437 29.2392 228.289 28.4317 228.012 27.7092C227.736 26.9867 227.311 26.328 226.801 25.7755C226.291 25.223 225.654 24.8192 224.931 24.5005C224.187 24.203 223.401 24.033 222.551 24.033C220.766 24.033 219.3 24.628 218.131 25.818C216.984 27.008 216.41 28.5167 216.41 30.323C216.41 31.9805 217.005 33.383 218.195 34.5305C219.385 35.678 220.809 36.2517 222.466 36.2517C223.614 36.2517 224.655 35.9755 225.569 35.4442C226.482 34.913 227.184 34.1692 227.694 33.2342C228.182 32.3205 228.437 31.2792 228.437 30.1105Z" fill="#00AAE9" stroke="white" stroke-width="0.0193983" stroke-miterlimit="10"/>
<path d="M236.789 40.3952V19.889H241.294V21.7802H241.379C241.782 20.909 242.505 20.2715 243.504 19.8465C244.502 19.4215 245.565 19.2302 246.691 19.2302C247.796 19.2302 248.816 19.4427 249.794 19.889C250.771 20.3352 251.557 20.9515 252.195 21.759C252.344 21.9077 252.492 22.1202 252.662 22.3965C252.79 22.1415 252.981 21.929 253.194 21.759C253.895 20.9302 254.766 20.2927 255.85 19.8677C256.934 19.4427 258.039 19.209 259.207 19.209C261.885 19.209 263.967 20.059 265.455 21.759C266.05 22.3752 266.496 23.0552 266.794 23.799C267.091 24.5427 267.304 25.3077 267.389 26.094C267.495 26.8802 267.537 27.794 267.537 28.8565V40.3527H262.629V29.4515C262.629 28.5802 262.586 27.8152 262.501 27.1565C262.416 26.519 262.204 25.9665 261.906 25.5202C261.694 25.2015 261.417 24.9252 261.099 24.6915C260.78 24.479 260.419 24.2877 260.036 24.1815C259.654 24.054 259.25 23.9902 258.825 23.9902C258.102 23.9902 257.444 24.139 256.849 24.4365C256.254 24.734 255.786 25.1802 255.425 25.754C255.085 26.349 254.872 27.029 254.787 27.794C254.702 28.559 254.66 29.494 254.66 30.5565V40.3315H249.709V29.4302C249.709 28.559 249.666 27.8152 249.581 27.2415C249.496 26.6677 249.284 26.1365 248.944 25.6477C248.604 25.1165 248.157 24.7127 247.584 24.4152C247.01 24.1177 246.394 23.9902 245.735 23.9902C244.524 23.9902 243.631 24.309 243.036 24.9677C242.462 25.6265 242.101 26.3702 241.952 27.2627C241.804 28.134 241.74 29.239 241.74 30.5777V40.3527H236.789V40.3952Z" fill="#00AAE9" stroke="white" stroke-width="0.0193983" stroke-miterlimit="10"/>
<path d="M271.554 40.3962V19.8899H276.462V40.3962H271.554ZM272.064 17.5524V13.9824H275.974V17.5312H272.064V17.5524Z" fill="#00AAE9" stroke="white" stroke-width="0.0193983" stroke-miterlimit="10"/>
<path d="M280.458 40.3959V13.0684H285.366V40.3959H280.458Z" fill="#00AAE9" stroke="white" stroke-width="0.0193983" stroke-miterlimit="10"/>
<path d="M289.34 40.3962V19.8899H294.249V40.3962H289.34ZM289.85 17.5524V13.9824H293.76V17.5312H289.85V17.5524Z" fill="#00AAE9" stroke="white" stroke-width="0.0193983" stroke-miterlimit="10"/>
<path d="M318.984 19.8892V40.3955H314.458V37.6117H314.394C313.65 38.653 312.63 39.503 311.334 40.1192C310.038 40.7355 308.741 41.0542 307.445 41.0542C305.915 41.0542 304.513 40.7567 303.216 40.1617C301.92 39.5667 300.815 38.7167 299.901 37.6117C298.201 35.5717 297.33 33.0855 297.33 30.153C297.33 29.2392 297.415 28.3467 297.585 27.4755C297.755 26.6042 298.031 25.7967 298.414 25.0317C298.796 24.288 299.306 23.523 299.965 22.7792C301.006 21.568 302.154 20.6755 303.429 20.1017C304.704 19.528 306.085 19.2305 307.594 19.2305C308.996 19.2305 310.293 19.528 311.483 20.1442C312.673 20.7392 313.671 21.6317 314.479 22.7792V19.8892H318.984ZM314.288 30.1105C314.288 29.2392 314.139 28.4317 313.863 27.7092C313.586 26.9867 313.161 26.328 312.651 25.7755C312.141 25.223 311.504 24.8192 310.781 24.5005C310.038 24.203 309.251 24.033 308.401 24.033C306.616 24.033 305.15 24.628 303.981 25.818C302.834 27.008 302.26 28.5167 302.26 30.323C302.26 31.9805 302.855 33.383 304.045 34.5305C305.235 35.678 306.659 36.2517 308.316 36.2517C309.464 36.2517 310.505 35.9755 311.419 35.4442C312.333 34.913 313.034 34.1692 313.544 33.2342C314.033 32.3205 314.288 31.2792 314.288 30.1105Z" fill="#00AAE9" stroke="white" stroke-width="0.0193983" stroke-miterlimit="10"/>
<path d="M322.639 40.3955V19.8892H327.101V21.7592H327.165C327.717 20.8667 328.334 20.2292 329.035 19.8255C329.736 19.443 330.565 19.2305 331.564 19.2305H331.946V24.0117C330.756 24.0117 329.757 24.3305 328.95 24.968C328.525 25.308 328.206 25.7117 327.994 26.158C327.781 26.6042 327.654 27.0505 327.611 27.518C327.569 27.9855 327.547 28.6017 327.547 29.3455V40.3955H322.639Z" fill="#00AAE9" stroke="white" stroke-width="0.0193983" stroke-miterlimit="10"/>
<path d="M163.795 54.7607L163.2 54.5482C162.286 54.2507 155.55 51.9557 150.025 45.8357C146.583 42.0319 144.288 37.527 143.161 32.4482C141.823 26.3282 142.248 19.4007 144.436 11.8782L145.201 9.22195L147.815 8.92445C148.155 8.7332 148.793 8.0532 149.09 7.52195L150.28 5.43945L152.681 5.4607H178.713L179.903 7.5432C180.2 8.0532 180.838 8.75445 181.156 8.92445L183.791 9.22195L184.556 11.8782C186.745 19.422 187.17 26.3495 185.81 32.4907C184.684 37.5695 182.368 42.0744 178.925 45.8782C173.23 52.1682 166.451 54.3569 165.708 54.5694L165.113 54.7395H163.795V54.7607Z" fill="#EB7233"/>
<path d="M164.199 52.3376L163.944 52.2526C163.242 52.0401 156.995 49.9576 151.81 44.1988C148.665 40.7138 146.54 36.5701 145.52 31.9163C144.266 26.1788 144.67 19.6763 146.752 12.5363L147.071 11.4313L148.219 11.3038C149.409 11.1763 150.726 9.51883 151.194 8.73258L151.682 7.86133H152.681H177.289L177.799 8.73258C178.16 9.34883 179.477 11.1551 180.774 11.3038L181.921 11.4313L182.24 12.5363C184.322 19.6763 184.726 26.2213 183.451 31.9588C182.431 36.6126 180.285 40.7563 177.14 44.2413C171.806 50.1488 165.282 52.1676 165.006 52.2526L164.751 52.3376H164.199Z" fill="#00AAE9"/>
<path d="M151.704 7.86133H152.702H177.31L177.799 8.73258C178.16 9.34883 179.477 11.1551 180.774 11.3038L181.921 11.4313L182.24 12.5363C184.322 19.6763 184.726 26.2213 183.451 31.9588C182.431 36.6126 180.285 40.7563 177.14 44.2413C171.806 50.1276 165.367 52.1463 165.006 52.2526L164.751 52.3376H164.199L163.944 52.2526C163.37 52.0826 157.016 49.9788 151.81 44.1988C148.665 40.7138 146.54 36.5701 145.52 31.9163C144.266 26.1788 144.67 19.6763 146.752 12.5363L147.071 11.4313L148.219 11.3038C149.409 11.1763 150.726 9.49758 151.194 8.73258L151.704 7.86133ZM151.704 7.86133L151.194 8.73258C150.747 9.51883 149.409 11.1763 148.219 11.3038L147.071 11.4313L146.752 12.5363C144.67 19.6763 144.266 26.1788 145.52 31.9163C146.54 36.5701 148.665 40.7138 151.81 44.1988C153 45.5163 154.36 46.7488 155.826 47.8751C157.016 48.7676 158.291 49.5963 159.63 50.3188C161.925 51.5726 163.646 52.1463 163.965 52.2526L164.22 52.3376H164.772L165.027 52.2526C165.219 52.1888 166.897 51.6576 169.214 50.4038C170.552 49.6813 171.849 48.8526 173.06 47.9601C174.569 46.8338 175.929 45.5801 177.161 44.2413C180.327 40.7563 182.452 36.6126 183.494 31.9588C184.769 26.2213 184.344 19.6763 182.282 12.5363L181.964 11.4313L180.816 11.3038C179.52 11.1551 178.202 9.34883 177.841 8.73258L177.352 7.86133H152.702H151.704Z" fill="white"/>
<path d="M164.199 52.3376L163.944 52.2526C163.37 52.0826 157.016 49.9788 151.81 44.1988C148.665 40.7138 146.54 36.5701 145.52 31.9163C144.266 26.1788 144.67 19.6763 146.752 12.5363L147.071 11.4313L148.219 11.3038C149.409 11.1763 150.726 9.49758 151.194 8.73258L151.682 7.86133H152.681H177.289L177.777 8.73258C178.139 9.34883 179.456 11.1551 180.752 11.3038L181.9 11.4313L182.219 12.5363C184.301 19.6763 184.705 26.2213 183.43 31.9588C182.41 36.6126 180.264 40.7563 177.119 44.2413C171.785 50.1276 165.346 52.1463 164.985 52.2526L164.73 52.3376H164.199Z" fill="#00AAE9"/>
<path d="M152.894 19.1234C151.789 19.1234 150.875 18.2097 150.875 17.1047C150.875 15.9997 151.789 15.0859 152.894 15.0859C153.999 15.0859 154.913 15.9997 154.913 17.1047C154.913 18.2097 154.02 19.1234 152.894 19.1234ZM152.894 15.7447C152.15 15.7447 151.534 16.3609 151.534 17.1047C151.534 17.8484 152.15 18.4647 152.894 18.4647C153.638 18.4647 154.254 17.8484 154.254 17.1047C154.254 16.3397 153.659 15.7447 152.894 15.7447Z" fill="white"/>
<path d="M154.7 36.8875C154.509 36.8875 154.36 36.7388 154.381 36.5475L154.594 22.7563C154.594 22.565 154.743 22.4375 154.934 22.4375C155.125 22.4375 155.253 22.5862 155.253 22.7775L155.04 36.5688C155.04 36.7388 154.891 36.8875 154.7 36.8875Z" fill="white"/>
<path d="M153 36.8879C152.809 36.8879 152.681 36.7391 152.681 36.5691V27.7504C152.681 27.5591 152.83 27.4316 153 27.4316C153.191 27.4316 153.319 27.5804 153.319 27.7504V36.5479C153.319 36.7391 153.17 36.8879 153 36.8879Z" fill="white"/>
<path d="M157.165 28.2396C156.74 28.2396 156.315 27.9634 156.166 27.5384C156.166 27.5384 156.166 27.5384 156.166 27.5171L154.615 22.8421C154.551 22.6721 154.658 22.4809 154.828 22.4384C154.998 22.3746 155.189 22.4809 155.231 22.6509L156.783 27.3046C156.868 27.5171 157.08 27.6234 157.293 27.5384C157.505 27.4746 157.633 27.2621 157.569 27.0496L155.678 21.4184C155.678 21.3971 155.678 21.3759 155.656 21.3546C155.55 20.6959 155.061 20.1434 154.403 19.9734L153.808 19.8246C153.638 19.7821 153.531 19.5909 153.574 19.4209C153.616 19.2509 153.808 19.1446 153.978 19.1871L154.573 19.3359C155.465 19.5696 156.145 20.3134 156.294 21.2059L158.185 26.8159V26.8371C158.334 27.3896 158.015 27.9634 157.463 28.1334C157.378 28.2184 157.271 28.2396 157.165 28.2396Z" fill="white"/>
<path d="M151.215 36.8875C151.045 36.8875 150.896 36.7388 150.896 36.5688L150.684 22.7775C150.684 22.5862 150.833 22.4375 151.003 22.4375C151.173 22.4375 151.343 22.5863 151.343 22.7563L151.555 36.5475C151.534 36.7388 151.385 36.8875 151.215 36.8875Z" fill="white"/>
<path d="M148.729 28.2403C148.623 28.2403 148.516 28.2191 148.41 28.1978C147.858 28.0278 147.539 27.4541 147.688 26.9016V26.8803L149.579 21.2703C149.728 20.3566 150.408 19.6128 151.3 19.4003L151.895 19.2516C152.065 19.2091 152.256 19.3153 152.299 19.4853C152.341 19.6553 152.235 19.8466 152.065 19.8891L151.47 20.0378C150.811 20.2078 150.323 20.7391 150.216 21.4191C150.216 21.4403 150.216 21.4616 150.195 21.4828L148.304 27.1141C148.261 27.3266 148.368 27.5391 148.58 27.6028C148.793 27.6666 149.005 27.5603 149.09 27.3478L150.663 22.6941C150.726 22.5241 150.896 22.4391 151.088 22.4816C151.258 22.5453 151.343 22.7153 151.3 22.9066L149.728 27.5816C149.728 27.5816 149.728 27.5816 149.728 27.6028C149.579 27.9853 149.175 28.2403 148.729 28.2403Z" fill="white"/>
<path d="M176.247 20.1234C175.185 20.1234 174.314 19.2521 174.314 18.1896C174.314 17.1271 175.185 16.2559 176.247 16.2559C177.31 16.2559 178.181 17.1271 178.181 18.1896C178.181 19.2521 177.31 20.1234 176.247 20.1234ZM176.247 16.9146C175.546 16.9146 174.972 17.4884 174.972 18.1896C174.972 18.8909 175.546 19.4646 176.247 19.4646C176.949 19.4646 177.522 18.8909 177.522 18.1896C177.522 17.4884 176.949 16.9146 176.247 16.9146Z" fill="white"/>
<path d="M177.671 36.9319C177.48 36.9319 177.331 36.7831 177.352 36.5919L177.48 32.9794C177.48 32.8094 177.629 32.6606 177.799 32.6606H179.817L177.565 25.1169C177.544 25.0744 177.544 25.0319 177.544 24.9894L177.692 23.0769C177.714 22.9069 177.862 22.7581 178.032 22.7794C178.202 22.8006 178.351 22.9494 178.33 23.1194L178.202 24.9681L180.561 32.8944C180.582 33.0006 180.561 33.1069 180.519 33.1919C180.455 33.2769 180.37 33.3194 180.264 33.3194H178.117L178.011 36.6131C177.99 36.8044 177.841 36.9319 177.671 36.9319Z" fill="white"/>
<path d="M176.332 36.9316C176.141 36.9316 176.014 36.7829 176.014 36.6129V33.0004C176.014 32.8091 176.162 32.6816 176.332 32.6816C176.524 32.6816 176.651 32.8304 176.651 33.0004V36.6129C176.672 36.7829 176.524 36.9316 176.332 36.9316Z" fill="white"/>
<path d="M180.306 28.7506C179.881 28.7506 179.499 28.4956 179.35 28.0919C179.35 28.0919 179.35 28.0919 179.35 28.0706L177.735 23.2044C177.671 23.0344 177.777 22.8431 177.947 22.8006C178.117 22.7369 178.309 22.8431 178.351 23.0131L179.966 27.8794C180.03 28.0706 180.242 28.1556 180.434 28.0919C180.625 28.0281 180.731 27.8369 180.689 27.6456L178.882 22.3119C178.882 22.2906 178.882 22.2694 178.861 22.2481C178.755 21.6319 178.309 21.1219 177.692 20.9519L177.14 20.8031C176.97 20.7606 176.864 20.5694 176.906 20.3994C176.949 20.2294 177.14 20.1231 177.31 20.1656L177.862 20.3144C178.712 20.5269 179.35 21.2281 179.499 22.0994L181.284 27.4119V27.4331C181.432 27.9644 181.114 28.5169 180.604 28.6869C180.497 28.7506 180.412 28.7506 180.306 28.7506Z" fill="white"/>
<path d="M174.972 36.9319C175.164 36.9319 175.312 36.7831 175.291 36.5919L175.164 32.9794C175.164 32.8094 175.015 32.6606 174.845 32.6606H172.826L175.079 25.1169C175.1 25.0744 175.1 25.0319 175.1 24.9894L174.951 23.0769C174.93 22.9069 174.781 22.7581 174.611 22.7794C174.441 22.8006 174.292 22.9494 174.314 23.1194L174.441 24.9681L172.082 32.8944C172.061 33.0006 172.082 33.1069 172.125 33.1919C172.189 33.2769 172.274 33.3194 172.38 33.3194H174.526L174.632 36.6131C174.654 36.8044 174.781 36.9319 174.972 36.9319Z" fill="white"/>
<path d="M172.337 28.7506C172.762 28.7506 173.145 28.4956 173.294 28.0919C173.294 28.0919 173.294 28.0919 173.294 28.0706L174.909 23.2044C174.972 23.0344 174.866 22.8431 174.696 22.8006C174.526 22.7369 174.335 22.8431 174.292 23.0131L172.677 27.8794C172.614 28.0706 172.401 28.1556 172.21 28.0919C172.019 28.0281 171.912 27.8369 171.955 27.6456L173.761 22.3119C173.761 22.2906 173.761 22.2694 173.782 22.2481C173.889 21.6319 174.335 21.1219 174.951 20.9519L175.504 20.8031C175.674 20.7606 175.78 20.5694 175.737 20.3994C175.695 20.2294 175.504 20.1231 175.334 20.1656L174.781 20.3144C173.931 20.5269 173.294 21.2281 173.145 22.0994L171.36 27.4119V27.4331C171.211 27.9644 171.53 28.5169 172.04 28.6869C172.125 28.7506 172.231 28.7506 172.337 28.7506Z" fill="white"/>
<path d="M160.969 26.2641C160.161 26.2641 159.481 25.6053 159.481 24.7766C159.481 23.9691 160.14 23.2891 160.969 23.2891C161.776 23.2891 162.456 23.9478 162.456 24.7766C162.456 25.6053 161.776 26.2641 160.969 26.2641ZM160.969 23.9478C160.523 23.9478 160.14 24.3091 160.14 24.7766C160.14 25.2228 160.501 25.6053 160.969 25.6053C161.436 25.6053 161.798 25.2441 161.798 24.7766C161.798 24.3303 161.415 23.9478 160.969 23.9478Z" fill="white"/>
<path d="M162.265 36.9314C162.074 36.9314 161.925 36.7827 161.946 36.5914L162.053 28.1977C162.053 28.0064 162.201 27.8789 162.393 27.8789C162.584 27.8789 162.711 28.0277 162.711 28.2189L162.605 36.6127C162.605 36.8039 162.456 36.9314 162.265 36.9314Z" fill="white"/>
<path d="M163.795 31.6198C163.476 31.6198 163.179 31.4285 163.051 31.1098L162.053 28.326C161.989 28.156 162.074 27.9648 162.244 27.901C162.414 27.8373 162.605 27.9223 162.669 28.0923L163.668 30.876C163.689 30.9398 163.753 30.9823 163.838 30.961C163.901 30.9398 163.944 30.876 163.923 30.8123C163.838 30.5573 162.86 27.816 162.796 27.561C162.711 27.2848 162.414 27.0298 162.074 26.9448L161.713 26.8598C161.543 26.8173 161.436 26.626 161.479 26.456C161.521 26.286 161.713 26.1798 161.883 26.2223L162.244 26.3073C162.818 26.456 163.264 26.8598 163.434 27.3698C163.498 27.5823 164.199 29.5798 164.56 30.621V30.6423C164.666 31.046 164.433 31.471 164.029 31.5985C163.944 31.5985 163.859 31.6198 163.795 31.6198Z" fill="white"/>
<path d="M159.694 36.9316C159.524 36.9316 159.375 36.7829 159.375 36.6129L159.333 28.2191C159.333 28.0279 159.482 27.9004 159.652 27.9004C159.822 27.9004 159.97 28.0491 159.97 28.2191L160.013 36.6129C160.013 36.7829 159.864 36.9316 159.694 36.9316Z" fill="white"/>
<path d="M158.143 31.6198C157.909 31.6198 157.739 31.5135 157.633 31.4285C157.42 31.2373 157.314 30.9185 157.399 30.6423V30.621C157.76 29.5798 158.461 27.5823 158.525 27.3698C158.674 26.881 159.141 26.456 159.715 26.3073L160.076 26.2223C160.246 26.1798 160.438 26.286 160.48 26.456C160.523 26.626 160.416 26.8173 160.246 26.8598L159.885 26.9448C159.545 27.0298 159.248 27.2848 159.163 27.561C159.078 27.816 158.121 30.5573 158.036 30.8123C158.036 30.8548 158.036 30.8973 158.079 30.9398C158.1 30.961 158.1 30.9398 158.1 30.961C158.121 30.9823 158.164 30.9823 158.27 30.9398C158.27 30.9398 158.291 30.9185 158.291 30.8973L159.354 28.1135C159.418 27.9435 159.609 27.8585 159.779 27.9223C159.949 27.986 160.034 28.1773 159.97 28.3473L158.908 31.131C158.844 31.3223 158.716 31.4498 158.568 31.5348C158.419 31.5773 158.27 31.6198 158.143 31.6198Z" fill="white"/>
<path d="M167.641 30.7252C166.728 30.7252 165.984 29.9814 165.984 29.0677C165.984 28.1539 166.728 27.4102 167.641 27.4102C168.555 27.4102 169.299 28.1539 169.299 29.0677C169.299 29.9814 168.555 30.7252 167.641 30.7252ZM167.641 28.1964C167.153 28.1964 166.77 28.5789 166.77 29.0677C166.77 29.5564 167.153 29.9389 167.641 29.9389C168.13 29.9389 168.513 29.5564 168.513 29.0677C168.513 28.5789 168.13 28.1964 167.641 28.1964Z" fill="white"/>
<path d="M168.874 36.7823C168.661 36.7823 168.491 36.6123 168.491 36.3786L168.555 31.5123C168.555 31.4698 168.576 31.4061 168.576 31.3636L170.191 27.6023C170.213 27.5386 170.213 27.4748 170.191 27.4111C170.17 27.3473 170.128 27.3048 170.064 27.2836C170 27.2623 169.936 27.2623 169.873 27.2836C169.809 27.3048 169.766 27.3473 169.745 27.4111L169.235 28.7286C169.15 28.9198 168.938 29.0261 168.725 28.9411C168.534 28.8561 168.428 28.6436 168.513 28.4311L169.023 27.1136C169.129 26.8586 169.32 26.6673 169.554 26.5611C169.809 26.4548 170.085 26.4548 170.34 26.5398C170.595 26.6461 170.808 26.8373 170.914 27.0923C171.02 27.3473 171.02 27.6236 170.914 27.8786L169.341 31.5761L169.278 36.3573C169.256 36.6123 169.086 36.7823 168.874 36.7823Z" fill="white"/>
<path d="M167.535 36.7822C167.323 36.7822 167.153 36.6122 167.153 36.3997V33.5309C167.153 33.3184 167.323 33.1484 167.535 33.1484C167.748 33.1484 167.918 33.3184 167.918 33.5309V36.3997C167.918 36.6122 167.748 36.7822 167.535 36.7822Z" fill="white"/>
<path d="M166.196 36.7823C165.984 36.7823 165.814 36.6123 165.814 36.3998L165.793 31.5973L164.326 27.9211C164.22 27.6661 164.241 27.3686 164.369 27.1348C164.496 26.8798 164.709 26.7098 164.985 26.6461C165.431 26.5186 165.92 26.7523 166.111 27.1773L166.77 28.5798C166.855 28.7711 166.77 29.0048 166.579 29.0898C166.388 29.1748 166.154 29.0898 166.069 28.8986L165.41 27.4961C165.368 27.4111 165.283 27.3686 165.198 27.3898C165.134 27.4111 165.091 27.4536 165.07 27.4961C165.049 27.5173 165.028 27.5811 165.07 27.6448L166.558 31.3848C166.579 31.4273 166.579 31.4698 166.579 31.5336L166.6 36.3998C166.579 36.6123 166.409 36.7823 166.196 36.7823Z" fill="white"/>
<path d="M169.214 36.4634C169.214 36.6546 169.065 36.7821 168.895 36.7821H166.324C166.132 36.7821 166.005 36.6334 166.005 36.4634C166.005 36.2721 166.154 36.1446 166.324 36.1446H168.895C169.086 36.1234 169.214 36.2721 169.214 36.4634Z" fill="white"/>
<path d="M162.584 36.6118C162.584 36.803 162.435 36.9305 162.265 36.9305H159.694C159.503 36.9305 159.375 36.7818 159.375 36.6118C159.375 36.4205 159.524 36.293 159.694 36.293H162.265C162.435 36.2718 162.584 36.4205 162.584 36.6118Z" fill="white"/>
<path d="M161.011 31.7031C161.202 31.7031 161.33 31.8519 161.33 32.0219V36.5906C161.33 36.7819 161.181 36.9094 161.011 36.9094C160.82 36.9094 160.692 36.7606 160.692 36.5906V32.0219C160.692 31.8519 160.82 31.7031 161.011 31.7031Z" fill="white"/>
<path d="M154.976 36.6137C154.976 36.8049 154.827 36.9324 154.657 36.9324H151.257C151.066 36.9324 150.939 36.7837 150.939 36.6137C150.939 36.4224 151.087 36.2949 151.257 36.2949H154.657C154.827 36.2949 154.976 36.4437 154.976 36.6137Z" fill="white"/>
<path d="M178.011 36.6137C178.011 36.8049 177.863 36.9324 177.693 36.9324H174.994C174.803 36.9324 174.675 36.7837 174.675 36.6137C174.675 36.4224 174.824 36.2949 174.994 36.2949H177.693C177.863 36.2949 178.011 36.4437 178.011 36.6137Z" fill="white"/>
</svg>
