<svg width="340" height="113" viewBox="0 0 340 113" fill="none" xmlns="http://www.w3.org/2000/svg">
<path d="M13.94 32.5557L11.3687 40.397H8.01123L16.49 15.4707H20.3575L28.8787 40.397H25.4362L22.7587 32.5557H13.94ZM22.1212 30.0482L19.6562 22.8657C19.125 21.2295 18.7425 19.742 18.3812 18.3182H18.275C17.9137 19.7845 17.5312 21.2932 17.0425 22.8232L14.5775 30.0482H22.1212Z" fill="#EB7233"/>
<path d="M44.7524 39.7586C43.9024 40.1836 42.0324 40.7998 39.6099 40.7998C34.2124 40.7998 30.6849 37.1236 30.6849 31.6623C30.6849 26.1373 34.4462 22.1211 40.2899 22.1211C42.2024 22.1211 43.9449 22.6098 44.8162 23.0773L44.0937 25.5848C43.2862 25.1598 42.0749 24.7348 40.2899 24.7348C36.2099 24.7348 33.9787 27.7948 33.9787 31.5136C33.9787 35.6573 36.6349 38.2073 40.2049 38.2073C42.0324 38.2073 43.2649 37.7398 44.1787 37.3573L44.7524 39.7586Z" fill="#EB7233"/>
<path d="M63.5587 35.5087C63.5587 37.3787 63.6224 38.9937 63.7074 40.3962H60.8387L60.6687 37.4637H60.5624C59.7337 38.9087 57.8424 40.7999 54.6337 40.7999C51.8287 40.7999 48.4712 39.2274 48.4712 32.9587V22.5037H51.7012V32.3849C51.7012 35.7849 52.7637 38.1224 55.6962 38.1224C57.8849 38.1224 59.3937 36.5924 60.0099 35.1262C60.1799 34.6587 60.3074 34.0849 60.3074 33.4474V22.4824H63.5374V35.5087H63.5587Z" fill="#EB7233"/>
<path d="M70.805 32.0448C70.8688 36.4436 73.6525 38.2498 76.925 38.2498C79.2625 38.2498 80.6863 37.8248 81.8763 37.3361L82.45 39.6523C81.3025 40.1623 79.3263 40.7998 76.4788 40.7998C70.975 40.7998 67.6813 37.1448 67.6813 31.7686C67.6813 26.3498 70.8688 22.1211 76.0963 22.1211C81.94 22.1211 83.47 27.2423 83.47 30.5361C83.47 31.2161 83.4275 31.7048 83.3638 32.0661H70.805V32.0448ZM80.325 29.7073C80.3675 27.6673 79.475 24.4373 75.8413 24.4373C72.5263 24.4373 71.1025 27.4336 70.8475 29.7073H80.325Z" fill="#EB7233"/>
<path d="M87.5075 28.0709C87.5075 25.9671 87.465 24.1609 87.3588 22.5034H90.2063L90.3338 26.0096H90.44C91.2688 23.6084 93.245 22.0996 95.4125 22.0996C95.7738 22.0996 96.0288 22.1209 96.3263 22.1846V25.2446C95.9863 25.1809 95.6675 25.1596 95.2213 25.1596C92.9263 25.1596 91.3113 26.8809 90.865 29.3246C90.78 29.7709 90.7375 30.3234 90.7375 30.8334V40.3959H87.5075V28.0709Z" fill="#EB7233"/>
<path d="M114.686 14.1309V35.7846C114.686 37.3784 114.75 39.1634 114.835 40.3959H111.945L111.775 37.2934H111.69C110.691 39.2909 108.545 40.7996 105.613 40.7996C101.278 40.7996 97.9413 37.1446 97.9413 31.7046C97.92 25.7334 101.618 22.0996 105.974 22.0996C108.715 22.0996 110.564 23.3959 111.371 24.8196H111.435V14.1309H114.686ZM111.456 29.7921C111.456 29.3671 111.414 28.8359 111.329 28.4109C110.819 26.3496 109.076 24.6709 106.611 24.6709C103.233 24.6709 101.235 27.6246 101.235 31.5559C101.235 35.1896 103.041 38.2071 106.548 38.2071C108.715 38.2071 110.713 36.7409 111.308 34.2971C111.414 33.8721 111.478 33.4046 111.478 32.8946V29.7921H111.456Z" fill="#EB7233"/>
<path d="M136.297 31.2794C136.297 37.9094 131.707 40.7994 127.394 40.7994C122.549 40.7994 118.787 37.2719 118.787 31.5769C118.787 25.5844 122.719 22.0781 127.67 22.0781C132.834 22.0994 136.297 25.8181 136.297 31.2794ZM122.124 31.4919C122.124 35.4231 124.376 38.3769 127.542 38.3769C130.666 38.3769 133.004 35.4656 133.004 31.4069C133.004 28.3894 131.474 24.5431 127.606 24.5431C123.781 24.5431 122.124 28.0919 122.124 31.4919Z" fill="#EB7233"/>
<path d="M195.117 40.3959V13.0684H209.036V17.9771H200.196V24.2671H208.632V29.1759H200.196V40.3959H195.117Z" fill="#00AAE9" stroke="white" stroke-width="0.0193983" stroke-miterlimit="10"/>
<path d="M233.134 19.8892V40.3955H228.607V37.6117H228.544C227.8 38.653 226.78 39.503 225.484 40.1192C224.187 40.7355 222.891 41.0542 221.595 41.0542C220.065 41.0542 218.662 40.7567 217.366 40.1617C216.07 39.5667 214.965 38.7167 214.051 37.6117C212.351 35.5717 211.48 33.0855 211.48 30.153C211.48 29.2392 211.565 28.3467 211.735 27.4755C211.905 26.6042 212.181 25.7967 212.564 25.0317C212.946 24.288 213.456 23.523 214.115 22.7792C215.156 21.568 216.304 20.6755 217.579 20.1017C218.854 19.528 220.235 19.2305 221.744 19.2305C223.146 19.2305 224.442 19.528 225.632 20.1442C226.822 20.7392 227.821 21.6317 228.629 22.7792V19.8892H233.134ZM228.437 30.1105C228.437 29.2392 228.289 28.4317 228.012 27.7092C227.736 26.9867 227.311 26.328 226.801 25.7755C226.291 25.223 225.654 24.8192 224.931 24.5005C224.187 24.203 223.401 24.033 222.551 24.033C220.766 24.033 219.3 24.628 218.131 25.818C216.984 27.008 216.41 28.5167 216.41 30.323C216.41 31.9805 217.005 33.383 218.195 34.5305C219.385 35.678 220.809 36.2517 222.466 36.2517C223.614 36.2517 224.655 35.9755 225.569 35.4442C226.482 34.913 227.184 34.1692 227.694 33.2342C228.182 32.3205 228.437 31.2792 228.437 30.1105Z" fill="#00AAE9" stroke="white" stroke-width="0.0193983" stroke-miterlimit="10"/>
<path d="M236.789 40.3952V19.889H241.294V21.7802H241.379C241.783 20.909 242.505 20.2715 243.504 19.8465C244.503 19.4215 245.565 19.2302 246.691 19.2302C247.796 19.2302 248.816 19.4427 249.794 19.889C250.771 20.3352 251.558 20.9515 252.195 21.759C252.344 21.9077 252.493 22.1202 252.663 22.3965C252.79 22.1415 252.981 21.929 253.194 21.759C253.895 20.9302 254.766 20.2927 255.85 19.8677C256.934 19.4427 258.039 19.209 259.208 19.209C261.885 19.209 263.968 20.059 265.455 21.759C266.05 22.3752 266.496 23.0552 266.794 23.799C267.091 24.5427 267.304 25.3077 267.389 26.094C267.495 26.8802 267.538 27.794 267.538 28.8565V40.3527H262.629V29.4515C262.629 28.5802 262.586 27.8152 262.501 27.1565C262.416 26.519 262.204 25.9665 261.906 25.5202C261.694 25.2015 261.418 24.9252 261.099 24.6915C260.78 24.479 260.419 24.2877 260.036 24.1815C259.654 24.054 259.25 23.9902 258.825 23.9902C258.103 23.9902 257.444 24.139 256.849 24.4365C256.254 24.734 255.786 25.1802 255.425 25.754C255.085 26.349 254.873 27.029 254.788 27.794C254.703 28.559 254.66 29.494 254.66 30.5565V40.3315H249.709V29.4302C249.709 28.559 249.666 27.8152 249.581 27.2415C249.496 26.6677 249.284 26.1365 248.944 25.6477C248.604 25.1165 248.158 24.7127 247.584 24.4152C247.01 24.1177 246.394 23.9902 245.735 23.9902C244.524 23.9902 243.631 24.309 243.036 24.9677C242.463 25.6265 242.101 26.3702 241.953 27.2627C241.804 28.134 241.74 29.239 241.74 30.5777V40.3527H236.789V40.3952Z" fill="#00AAE9" stroke="white" stroke-width="0.0193983" stroke-miterlimit="10"/>
<path d="M271.554 40.3962V19.8899H276.462V40.3962H271.554ZM272.064 17.5524V13.9824H275.974V17.5312H272.064V17.5524Z" fill="#00AAE9" stroke="white" stroke-width="0.0193983" stroke-miterlimit="10"/>
<path d="M280.458 40.3959V13.0684H285.366V40.3959H280.458Z" fill="#00AAE9" stroke="white" stroke-width="0.0193983" stroke-miterlimit="10"/>
<path d="M289.34 40.3962V19.8899H294.249V40.3962H289.34ZM289.85 17.5524V13.9824H293.76V17.5312H289.85V17.5524Z" fill="#00AAE9" stroke="white" stroke-width="0.0193983" stroke-miterlimit="10"/>
<path d="M318.984 19.8892V40.3955H314.457V37.6117H314.394C313.65 38.653 312.63 39.503 311.334 40.1192C310.037 40.7355 308.741 41.0542 307.445 41.0542C305.915 41.0542 304.512 40.7567 303.216 40.1617C301.92 39.5667 300.815 38.7167 299.901 37.6117C298.201 35.5717 297.33 33.0855 297.33 30.153C297.33 29.2392 297.415 28.3467 297.585 27.4755C297.755 26.6042 298.031 25.7967 298.414 25.0317C298.796 24.288 299.306 23.523 299.965 22.7792C301.006 21.568 302.154 20.6755 303.429 20.1017C304.704 19.528 306.085 19.2305 307.594 19.2305C308.996 19.2305 310.292 19.528 311.482 20.1442C312.672 20.7392 313.671 21.6317 314.479 22.7792V19.8892H318.984ZM314.287 30.1105C314.287 29.2392 314.139 28.4317 313.862 27.7092C313.586 26.9867 313.161 26.328 312.651 25.7755C312.141 25.223 311.504 24.8192 310.781 24.5005C310.037 24.203 309.251 24.033 308.401 24.033C306.616 24.033 305.15 24.628 303.981 25.818C302.834 27.008 302.26 28.5167 302.26 30.323C302.26 31.9805 302.855 33.383 304.045 34.5305C305.235 35.678 306.659 36.2517 308.316 36.2517C309.464 36.2517 310.505 35.9755 311.419 35.4442C312.332 34.913 313.034 34.1692 313.544 33.2342C314.032 32.3205 314.287 31.2792 314.287 30.1105Z" fill="#00AAE9" stroke="white" stroke-width="0.0193983" stroke-miterlimit="10"/>
<path d="M322.639 40.3955V19.8892H327.101V21.7592H327.165C327.718 20.8667 328.334 20.2292 329.035 19.8255C329.736 19.443 330.565 19.2305 331.564 19.2305H331.946V24.0117C330.756 24.0117 329.758 24.3305 328.95 24.968C328.525 25.308 328.206 25.7117 327.994 26.158C327.781 26.6042 327.654 27.0505 327.611 27.518C327.569 27.9855 327.548 28.6017 327.548 29.3455V40.3955H322.639Z" fill="#00AAE9" stroke="white" stroke-width="0.0193983" stroke-miterlimit="10"/>
<path d="M163.795 54.7607L163.2 54.5482C162.286 54.2507 155.55 51.9557 150.025 45.8357C146.583 42.0319 144.288 37.527 143.161 32.4482C141.823 26.3282 142.248 19.4007 144.436 11.8782L145.201 9.22195L147.815 8.92445C148.155 8.7332 148.793 8.0532 149.09 7.52195L150.28 5.43945L152.681 5.4607H178.713L179.903 7.5432C180.2 8.0532 180.838 8.75445 181.156 8.92445L183.791 9.22195L184.556 11.8782C186.745 19.422 187.17 26.3495 185.81 32.4907C184.684 37.5695 182.368 42.0744 178.925 45.8782C173.23 52.1682 166.451 54.3569 165.708 54.5694L165.113 54.7395H163.795V54.7607Z" fill="#EB7233"/>
<path d="M164.199 52.3376L163.944 52.2526C163.243 52.0401 156.995 49.9576 151.81 44.1988C148.665 40.7138 146.54 36.5701 145.52 31.9163C144.266 26.1788 144.67 19.6763 146.753 12.5363L147.071 11.4313L148.219 11.3038C149.409 11.1763 150.726 9.51883 151.194 8.73258L151.683 7.86133H152.681H177.289L177.799 8.73258C178.16 9.34883 179.478 11.1551 180.774 11.3038L181.921 11.4313L182.24 12.5363C184.323 19.6763 184.726 26.2213 183.451 31.9588C182.431 36.6126 180.285 40.7563 177.14 44.2413C171.806 50.1488 165.283 52.1676 165.006 52.2526L164.751 52.3376H164.199Z" fill="#00AAE9"/>
<path d="M151.704 7.86133H152.703H177.31L177.799 8.73258C178.16 9.34883 179.478 11.1551 180.774 11.3038L181.921 11.4313L182.24 12.5363C184.323 19.6763 184.726 26.2213 183.451 31.9588C182.431 36.6126 180.285 40.7563 177.14 44.2413C171.806 50.1276 165.368 52.1463 165.006 52.2526L164.751 52.3376H164.199L163.944 52.2526C163.37 52.0826 157.016 49.9788 151.81 44.1988C148.665 40.7138 146.54 36.5701 145.52 31.9163C144.266 26.1788 144.67 19.6763 146.753 12.5363L147.071 11.4313L148.219 11.3038C149.409 11.1763 150.726 9.49758 151.194 8.73258L151.704 7.86133ZM151.704 7.86133L151.194 8.73258C150.748 9.51883 149.409 11.1763 148.219 11.3038L147.071 11.4313L146.753 12.5363C144.67 19.6763 144.266 26.1788 145.52 31.9163C146.54 36.5701 148.665 40.7138 151.81 44.1988C153 45.5163 154.36 46.7488 155.826 47.8751C157.016 48.7676 158.291 49.5963 159.63 50.3188C161.925 51.5726 163.646 52.1463 163.965 52.2526L164.22 52.3376H164.773L165.028 52.2526C165.219 52.1888 166.898 51.6576 169.214 50.4038C170.553 49.6813 171.849 48.8526 173.06 47.9601C174.569 46.8338 175.929 45.5801 177.161 44.2413C180.328 40.7563 182.453 36.6126 183.494 31.9588C184.769 26.2213 184.344 19.6763 182.283 12.5363L181.964 11.4313L180.816 11.3038C179.52 11.1551 178.203 9.34883 177.841 8.73258L177.353 7.86133H152.703H151.704Z" fill="white"/>
<path d="M164.199 52.3376L163.944 52.2526C163.37 52.0826 157.016 49.9788 151.81 44.1988C148.665 40.7138 146.54 36.5701 145.52 31.9163C144.266 26.1788 144.67 19.6763 146.753 12.5363L147.071 11.4313L148.219 11.3038C149.409 11.1763 150.726 9.49758 151.194 8.73258L151.683 7.86133H152.681H177.289L177.778 8.73258C178.139 9.34883 179.456 11.1551 180.753 11.3038L181.9 11.4313L182.219 12.5363C184.301 19.6763 184.705 26.2213 183.43 31.9588C182.41 36.6126 180.264 40.7563 177.119 44.2413C171.785 50.1276 165.346 52.1463 164.985 52.2526L164.73 52.3376H164.199Z" fill="#00AAE9"/>
<path d="M152.894 19.1234C151.789 19.1234 150.875 18.2097 150.875 17.1047C150.875 15.9997 151.789 15.0859 152.894 15.0859C153.999 15.0859 154.912 15.9997 154.912 17.1047C154.912 18.2097 154.02 19.1234 152.894 19.1234ZM152.894 15.7447C152.15 15.7447 151.534 16.3609 151.534 17.1047C151.534 17.8484 152.15 18.4647 152.894 18.4647C153.637 18.4647 154.254 17.8484 154.254 17.1047C154.254 16.3397 153.659 15.7447 152.894 15.7447Z" fill="white"/>
<path d="M154.7 36.8875C154.509 36.8875 154.36 36.7388 154.381 36.5475L154.594 22.7563C154.594 22.565 154.742 22.4375 154.934 22.4375C155.125 22.4375 155.252 22.5862 155.252 22.7775L155.04 36.5688C155.04 36.7388 154.891 36.8875 154.7 36.8875Z" fill="white"/>
<path d="M153 36.8879C152.809 36.8879 152.681 36.7391 152.681 36.5691V27.7504C152.681 27.5591 152.83 27.4316 153 27.4316C153.191 27.4316 153.319 27.5804 153.319 27.7504V36.5479C153.319 36.7391 153.17 36.8879 153 36.8879Z" fill="white"/>
<path d="M157.165 28.2396C156.74 28.2396 156.315 27.9634 156.166 27.5384C156.166 27.5384 156.166 27.5384 156.166 27.5171L154.615 22.8421C154.551 22.6721 154.657 22.4809 154.827 22.4384C154.997 22.3746 155.189 22.4809 155.231 22.6509L156.782 27.3046C156.867 27.5171 157.08 27.6234 157.292 27.5384C157.505 27.4746 157.632 27.2621 157.569 27.0496L155.677 21.4184C155.677 21.3971 155.677 21.3759 155.656 21.3546C155.55 20.6959 155.061 20.1434 154.402 19.9734L153.807 19.8246C153.637 19.7821 153.531 19.5909 153.574 19.4209C153.616 19.2509 153.807 19.1446 153.977 19.1871L154.572 19.3359C155.465 19.5696 156.145 20.3134 156.294 21.2059L158.185 26.8159V26.8371C158.334 27.3896 158.015 27.9634 157.462 28.1334C157.377 28.2184 157.271 28.2396 157.165 28.2396Z" fill="white"/>
<path d="M151.215 36.8875C151.045 36.8875 150.896 36.7388 150.896 36.5688L150.684 22.7775C150.684 22.5862 150.832 22.4375 151.002 22.4375C151.172 22.4375 151.342 22.5863 151.342 22.7563L151.555 36.5475C151.534 36.7388 151.385 36.8875 151.215 36.8875Z" fill="white"/>
<path d="M148.729 28.2403C148.622 28.2403 148.516 28.2191 148.41 28.1978C147.857 28.0278 147.539 27.4541 147.687 26.9016V26.8803L149.579 21.2703C149.727 20.3566 150.407 19.6128 151.3 19.4003L151.895 19.2516C152.065 19.2091 152.256 19.3153 152.299 19.4853C152.341 19.6553 152.235 19.8466 152.065 19.8891L151.47 20.0378C150.811 20.2078 150.322 20.7391 150.216 21.4191C150.216 21.4403 150.216 21.4616 150.195 21.4828L148.304 27.1141C148.261 27.3266 148.367 27.5391 148.58 27.6028C148.792 27.6666 149.005 27.5603 149.09 27.3478L150.662 22.6941C150.726 22.5241 150.896 22.4391 151.087 22.4816C151.257 22.5453 151.342 22.7153 151.3 22.9066L149.727 27.5816C149.727 27.5816 149.727 27.5816 149.727 27.6028C149.579 27.9853 149.175 28.2403 148.729 28.2403Z" fill="white"/>
<path d="M176.247 20.1234C175.185 20.1234 174.313 19.2521 174.313 18.1896C174.313 17.1271 175.185 16.2559 176.247 16.2559C177.31 16.2559 178.181 17.1271 178.181 18.1896C178.181 19.2521 177.31 20.1234 176.247 20.1234ZM176.247 16.9146C175.546 16.9146 174.972 17.4884 174.972 18.1896C174.972 18.8909 175.546 19.4646 176.247 19.4646C176.948 19.4646 177.522 18.8909 177.522 18.1896C177.522 17.4884 176.948 16.9146 176.247 16.9146Z" fill="white"/>
<path d="M177.671 36.9319C177.48 36.9319 177.331 36.7831 177.352 36.5919L177.48 32.9794C177.48 32.8094 177.629 32.6606 177.799 32.6606H179.817L177.565 25.1169C177.543 25.0744 177.543 25.0319 177.543 24.9894L177.692 23.0769C177.714 22.9069 177.862 22.7581 178.032 22.7794C178.202 22.8006 178.351 22.9494 178.33 23.1194L178.202 24.9681L180.561 32.8944C180.582 33.0006 180.561 33.1069 180.518 33.1919C180.455 33.2769 180.37 33.3194 180.263 33.3194H178.117L178.011 36.6131C177.99 36.8044 177.841 36.9319 177.671 36.9319Z" fill="white"/>
<path d="M176.332 36.9316C176.141 36.9316 176.014 36.7829 176.014 36.6129V33.0004C176.014 32.8091 176.162 32.6816 176.332 32.6816C176.524 32.6816 176.651 32.8304 176.651 33.0004V36.6129C176.672 36.7829 176.524 36.9316 176.332 36.9316Z" fill="white"/>
<path d="M180.306 28.7506C179.881 28.7506 179.499 28.4956 179.35 28.0919C179.35 28.0919 179.35 28.0919 179.35 28.0706L177.735 23.2044C177.671 23.0344 177.777 22.8431 177.947 22.8006C178.117 22.7369 178.309 22.8431 178.351 23.0131L179.966 27.8794C180.03 28.0706 180.242 28.1556 180.434 28.0919C180.625 28.0281 180.731 27.8369 180.689 27.6456L178.882 22.3119C178.882 22.2906 178.882 22.2694 178.861 22.2481C178.755 21.6319 178.309 21.1219 177.692 20.9519L177.14 20.8031C176.97 20.7606 176.864 20.5694 176.906 20.3994C176.949 20.2294 177.14 20.1231 177.31 20.1656L177.862 20.3144C178.712 20.5269 179.35 21.2281 179.499 22.0994L181.284 27.4119V27.4331C181.432 27.9644 181.114 28.5169 180.604 28.6869C180.497 28.7506 180.412 28.7506 180.306 28.7506Z" fill="white"/>
<path d="M174.972 36.9319C175.164 36.9319 175.312 36.7831 175.291 36.5919L175.164 32.9794C175.164 32.8094 175.015 32.6606 174.845 32.6606H172.826L175.079 25.1169C175.1 25.0744 175.1 25.0319 175.1 24.9894L174.951 23.0769C174.93 22.9069 174.781 22.7581 174.611 22.7794C174.441 22.8006 174.292 22.9494 174.314 23.1194L174.441 24.9681L172.082 32.8944C172.061 33.0006 172.082 33.1069 172.125 33.1919C172.189 33.2769 172.274 33.3194 172.38 33.3194H174.526L174.632 36.6131C174.654 36.8044 174.781 36.9319 174.972 36.9319Z" fill="white"/>
<path d="M172.337 28.7506C172.762 28.7506 173.145 28.4956 173.294 28.0919C173.294 28.0919 173.294 28.0919 173.294 28.0706L174.909 23.2044C174.972 23.0344 174.866 22.8431 174.696 22.8006C174.526 22.7369 174.335 22.8431 174.292 23.0131L172.677 27.8794C172.614 28.0706 172.401 28.1556 172.21 28.0919C172.019 28.0281 171.912 27.8369 171.955 27.6456L173.761 22.3119C173.761 22.2906 173.761 22.2694 173.782 22.2481C173.889 21.6319 174.335 21.1219 174.951 20.9519L175.504 20.8031C175.674 20.7606 175.78 20.5694 175.737 20.3994C175.695 20.2294 175.504 20.1231 175.334 20.1656L174.781 20.3144C173.931 20.5269 173.294 21.2281 173.145 22.0994L171.36 27.4119V27.4331C171.211 27.9644 171.53 28.5169 172.04 28.6869C172.125 28.7506 172.231 28.7506 172.337 28.7506Z" fill="white"/>
<path d="M160.969 26.2641C160.161 26.2641 159.481 25.6053 159.481 24.7766C159.481 23.9691 160.14 23.2891 160.969 23.2891C161.776 23.2891 162.456 23.9478 162.456 24.7766C162.456 25.6053 161.776 26.2641 160.969 26.2641ZM160.969 23.9478C160.522 23.9478 160.14 24.3091 160.14 24.7766C160.14 25.2228 160.501 25.6053 160.969 25.6053C161.436 25.6053 161.797 25.2441 161.797 24.7766C161.797 24.3303 161.415 23.9478 160.969 23.9478Z" fill="white"/>
<path d="M162.265 36.9314C162.074 36.9314 161.925 36.7827 161.946 36.5914L162.052 28.1977C162.052 28.0064 162.201 27.8789 162.392 27.8789C162.584 27.8789 162.711 28.0277 162.711 28.2189L162.605 36.6127C162.605 36.8039 162.456 36.9314 162.265 36.9314Z" fill="white"/>
<path d="M163.795 31.6198C163.476 31.6198 163.179 31.4285 163.051 31.1098L162.052 28.326C161.989 28.156 162.074 27.9648 162.244 27.901C162.414 27.8373 162.605 27.9223 162.669 28.0923L163.667 30.876C163.689 30.9398 163.752 30.9823 163.837 30.961C163.901 30.9398 163.944 30.876 163.922 30.8123C163.837 30.5573 162.86 27.816 162.796 27.561C162.711 27.2848 162.414 27.0298 162.074 26.9448L161.712 26.8598C161.542 26.8173 161.436 26.626 161.479 26.456C161.521 26.286 161.712 26.1798 161.882 26.2223L162.244 26.3073C162.817 26.456 163.264 26.8598 163.434 27.3698C163.497 27.5823 164.199 29.5798 164.56 30.621V30.6423C164.666 31.046 164.432 31.471 164.029 31.5985C163.944 31.5985 163.859 31.6198 163.795 31.6198Z" fill="white"/>
<path d="M159.694 36.9316C159.524 36.9316 159.375 36.7829 159.375 36.6129L159.332 28.2191C159.332 28.0279 159.481 27.9004 159.651 27.9004C159.821 27.9004 159.97 28.0491 159.97 28.2191L160.012 36.6129C160.012 36.7829 159.864 36.9316 159.694 36.9316Z" fill="white"/>
<path d="M158.142 31.6198C157.909 31.6198 157.739 31.5135 157.632 31.4285C157.42 31.2373 157.314 30.9185 157.399 30.6423V30.621C157.76 29.5798 158.461 27.5823 158.525 27.3698C158.674 26.881 159.141 26.456 159.715 26.3073L160.076 26.2223C160.246 26.1798 160.437 26.286 160.48 26.456C160.522 26.626 160.416 26.8173 160.246 26.8598L159.885 26.9448C159.545 27.0298 159.247 27.2848 159.162 27.561C159.077 27.816 158.121 30.5573 158.036 30.8123C158.036 30.8548 158.036 30.8973 158.079 30.9398C158.1 30.961 158.1 30.9398 158.1 30.961C158.121 30.9823 158.164 30.9823 158.27 30.9398C158.27 30.9398 158.291 30.9185 158.291 30.8973L159.354 28.1135C159.417 27.9435 159.609 27.8585 159.779 27.9223C159.949 27.986 160.034 28.1773 159.97 28.3473L158.907 31.131C158.844 31.3223 158.716 31.4498 158.567 31.5348C158.419 31.5773 158.27 31.6198 158.142 31.6198Z" fill="white"/>
<path d="M167.641 30.7252C166.727 30.7252 165.984 29.9814 165.984 29.0677C165.984 28.1539 166.727 27.4102 167.641 27.4102C168.555 27.4102 169.299 28.1539 169.299 29.0677C169.299 29.9814 168.555 30.7252 167.641 30.7252ZM167.641 28.1964C167.152 28.1964 166.77 28.5789 166.77 29.0677C166.77 29.5564 167.152 29.9389 167.641 29.9389C168.13 29.9389 168.512 29.5564 168.512 29.0677C168.512 28.5789 168.13 28.1964 167.641 28.1964Z" fill="white"/>
<path d="M168.874 36.7823C168.661 36.7823 168.491 36.6123 168.491 36.3786L168.555 31.5123C168.555 31.4698 168.576 31.4061 168.576 31.3636L170.191 27.6023C170.212 27.5386 170.212 27.4748 170.191 27.4111C170.17 27.3473 170.127 27.3048 170.064 27.2836C170 27.2623 169.936 27.2623 169.872 27.2836C169.809 27.3048 169.766 27.3473 169.745 27.4111L169.235 28.7286C169.15 28.9198 168.937 29.0261 168.725 28.9411C168.534 28.8561 168.427 28.6436 168.512 28.4311L169.022 27.1136C169.129 26.8586 169.32 26.6673 169.554 26.5611C169.809 26.4548 170.085 26.4548 170.34 26.5398C170.595 26.6461 170.807 26.8373 170.914 27.0923C171.02 27.3473 171.02 27.6236 170.914 27.8786L169.341 31.5761L169.277 36.3573C169.256 36.6123 169.086 36.7823 168.874 36.7823Z" fill="white"/>
<path d="M167.535 36.7822C167.322 36.7822 167.152 36.6122 167.152 36.3997V33.5309C167.152 33.3184 167.322 33.1484 167.535 33.1484C167.747 33.1484 167.917 33.3184 167.917 33.5309V36.3997C167.917 36.6122 167.747 36.7822 167.535 36.7822Z" fill="white"/>
<path d="M166.196 36.7823C165.984 36.7823 165.814 36.6123 165.814 36.3998L165.792 31.5973L164.326 27.9211C164.22 27.6661 164.241 27.3686 164.369 27.1348C164.496 26.8798 164.709 26.7098 164.985 26.6461C165.431 26.5186 165.92 26.7523 166.111 27.1773L166.77 28.5798C166.855 28.7711 166.77 29.0048 166.579 29.0898C166.387 29.1748 166.154 29.0898 166.069 28.8986L165.41 27.4961C165.367 27.4111 165.282 27.3686 165.197 27.3898C165.134 27.4111 165.091 27.4536 165.07 27.4961C165.049 27.5173 165.027 27.5811 165.07 27.6448L166.557 31.3848C166.579 31.4273 166.579 31.4698 166.579 31.5336L166.6 36.3998C166.579 36.6123 166.409 36.7823 166.196 36.7823Z" fill="white"/>
<path d="M169.214 36.4634C169.214 36.6546 169.065 36.7821 168.895 36.7821H166.324C166.132 36.7821 166.005 36.6334 166.005 36.4634C166.005 36.2721 166.154 36.1446 166.324 36.1446H168.895C169.086 36.1234 169.214 36.2721 169.214 36.4634Z" fill="white"/>
<path d="M162.584 36.6118C162.584 36.803 162.435 36.9305 162.265 36.9305H159.694C159.502 36.9305 159.375 36.7818 159.375 36.6118C159.375 36.4205 159.524 36.293 159.694 36.293H162.265C162.435 36.2718 162.584 36.4205 162.584 36.6118Z" fill="white"/>
<path d="M161.011 31.7031C161.202 31.7031 161.33 31.8519 161.33 32.0219V36.5906C161.33 36.7819 161.181 36.9094 161.011 36.9094C160.82 36.9094 160.692 36.7606 160.692 36.5906V32.0219C160.692 31.8519 160.82 31.7031 161.011 31.7031Z" fill="white"/>
<path d="M154.976 36.6137C154.976 36.8049 154.827 36.9324 154.657 36.9324H151.257C151.066 36.9324 150.939 36.7837 150.939 36.6137C150.939 36.4224 151.087 36.2949 151.257 36.2949H154.657C154.827 36.2949 154.976 36.4437 154.976 36.6137Z" fill="white"/>
<path d="M178.011 36.6137C178.011 36.8049 177.863 36.9324 177.693 36.9324H174.994C174.803 36.9324 174.675 36.7837 174.675 36.6137C174.675 36.4224 174.824 36.2949 174.994 36.2949H177.693C177.863 36.2949 178.011 36.4437 178.011 36.6137Z" fill="white"/>
<mask id="mask0_814_2790" style="mask-type:luminance" maskUnits="userSpaceOnUse" x="105" y="73" width="30" height="40">
<path d="M113.24 75.9616C113.24 77.5906 114.572 78.9233 116.201 78.9233C116.349 78.9233 116.498 78.9233 116.646 78.8863L118.682 85.55L115.276 84.2543C115.313 84.0692 115.35 83.9211 115.35 83.736C115.35 82.4032 114.276 81.3296 112.944 81.3296C111.611 81.3296 110.537 82.4032 110.537 83.736C110.537 85.0687 111.611 86.1423 112.944 86.1423C113.573 86.1423 114.202 85.8832 114.646 85.4019L119.274 87.6602L120.57 91.9175L108.908 88.4006C109.056 88.0304 109.056 87.6602 108.982 87.2899C108.871 86.7717 108.575 86.3274 108.094 86.0312C107.168 85.4389 105.91 85.6981 105.317 86.6236C104.725 87.5491 104.984 88.8078 105.91 89.4001C106.354 89.6963 106.909 89.7703 107.427 89.6593C107.724 89.5852 108.02 89.4371 108.279 89.252L120.57 94.1758L120.459 99.1736L111.981 95.9528C112.166 94.8421 111.537 93.7315 110.463 93.3243C109.871 93.1022 109.204 93.1022 108.612 93.3613C108.02 93.6205 107.576 94.1017 107.353 94.6941C107.131 95.2864 107.131 95.9528 107.39 96.5451C107.65 97.1374 108.131 97.5817 108.723 97.8038C108.982 97.9149 109.279 97.9519 109.575 97.9519C110.389 97.9519 111.13 97.5447 111.574 96.8783L120.348 101.506L120.126 111.057C120.126 111.761 120.718 112.353 121.421 112.353C122.125 112.353 122.717 111.761 122.717 111.057L122.458 100.136L130.158 95.3234C130.639 96.0268 131.417 96.434 132.268 96.434C132.676 96.434 133.083 96.323 133.453 96.1379C134.045 95.8047 134.49 95.2864 134.712 94.62C134.897 93.9537 134.86 93.2503 134.527 92.6579C134.193 92.0656 133.675 91.5843 133.009 91.3992C132.342 91.2141 131.639 91.2512 131.047 91.5843C130.047 92.1026 129.529 93.2132 129.714 94.2868L122.384 97.6187L122.31 93.9537L130.787 85.4389V85.4019C131.306 85.624 131.861 85.661 132.416 85.513C133.12 85.3649 133.712 84.9206 134.119 84.2913C134.49 83.6619 134.638 82.9585 134.453 82.2551C134.304 81.5518 133.86 80.9594 133.231 80.5522C132.601 80.182 131.898 80.0339 131.195 80.219C130.491 80.3671 129.899 80.8113 129.492 81.4407C129.122 82.07 128.973 82.7734 129.159 83.4768C129.27 83.9951 129.566 84.4764 129.973 84.8466C129.973 84.8466 129.973 84.8466 129.973 84.8836L122.31 91.2141L120.866 87.2529C120.903 87.2159 120.903 87.1789 120.903 87.1419V87.1048L123.383 83.0326C123.643 83.1066 123.939 83.1436 124.198 83.1436C125.827 83.1436 127.159 81.8109 127.159 80.182C127.159 78.5531 125.827 77.2203 124.198 77.2203C122.569 77.2203 121.236 78.5531 121.236 80.182C121.236 80.9964 121.569 81.7739 122.162 82.3292L120.052 85.1428L117.645 78.5531C118.571 78.0348 119.163 77.0352 119.163 75.9616C119.163 74.3327 117.83 73 116.201 73C114.572 73 113.24 74.3327 113.24 75.9616Z" fill="white"/>
</mask>
<g mask="url(#mask0_814_2790)">
<path d="M135.008 73H104.799V112.353H135.008V73Z" fill="url(#paint0_linear_814_2790)"/>
</g>
<path d="M144.892 94.2871C144.67 94.065 144.522 93.7318 144.522 93.3246V83.366C144.522 82.9588 144.633 82.6256 144.892 82.4035C145.114 82.1814 145.448 82.0703 145.892 82.0703H149.631C151.038 82.0703 152.259 82.3295 153.296 82.8107C154.333 83.292 155.11 84.0324 155.628 84.9579C156.184 85.8834 156.443 87.0311 156.443 88.3268C156.443 89.6225 156.184 90.7702 155.628 91.6957C155.11 92.6582 154.296 93.3616 153.296 93.8799C152.259 94.3611 151.038 94.6203 149.594 94.6203H145.855C145.448 94.6573 145.114 94.5463 144.892 94.2871ZM149.409 92.3991C152.185 92.3991 153.592 91.0663 153.592 88.3638C153.592 85.6613 152.185 84.3286 149.409 84.3286H147.41V92.3991H149.409Z" fill="#6F6F6E"/>
<path d="M162.366 94.361C162.107 94.1018 161.959 93.7686 161.959 93.3614V83.3659C161.959 82.9586 162.107 82.6254 162.366 82.3663C162.625 82.1072 162.995 81.9961 163.44 81.9961C163.884 81.9961 164.254 82.1072 164.513 82.3663C164.772 82.6254 164.921 82.9586 164.921 83.3659V93.3614C164.921 93.8057 164.809 94.1388 164.513 94.361C164.254 94.6201 163.884 94.7312 163.44 94.7312C162.995 94.7682 162.625 94.6201 162.366 94.361Z" fill="#6F6F6E"/>
<path d="M181.691 87.9933C181.913 88.1784 181.987 88.4376 181.987 88.7338V92.2137C181.987 92.695 181.95 93.0652 181.876 93.3243C181.802 93.5835 181.654 93.8056 181.469 93.9537C181.284 94.1017 180.987 94.2498 180.58 94.3609C180.099 94.509 179.544 94.62 178.914 94.6941C178.285 94.7681 177.693 94.8051 177.137 94.8051C175.768 94.8051 174.546 94.546 173.546 94.0277C172.547 93.5094 171.769 92.769 171.214 91.8065C170.659 90.8439 170.4 89.6963 170.4 88.3635C170.4 87.0678 170.659 85.9202 171.214 84.9577C171.732 83.9951 172.51 83.2547 173.509 82.7364C174.509 82.2181 175.693 81.959 177.026 81.959C178.729 81.959 180.173 82.4032 181.284 83.2547C181.469 83.4028 181.58 83.5509 181.691 83.699C181.765 83.847 181.802 84.0321 181.802 84.2172C181.802 84.5134 181.728 84.7726 181.543 84.9947C181.358 85.2168 181.136 85.3279 180.913 85.3279C180.765 85.3279 180.617 85.2908 180.469 85.2538C180.358 85.2168 180.173 85.1428 179.988 85.0317C179.47 84.7355 178.988 84.5134 178.544 84.3653C178.1 84.2172 177.619 84.1802 177.1 84.1802C174.583 84.1802 173.324 85.587 173.324 88.4006C173.324 89.8444 173.657 90.918 174.287 91.6584C174.953 92.3618 175.916 92.732 177.248 92.732C177.952 92.732 178.692 92.6579 179.396 92.4728V89.6963H177.693C177.322 89.6963 177.063 89.6222 176.841 89.4371C176.656 89.2891 176.545 89.0299 176.545 88.7338C176.545 88.4376 176.656 88.1784 176.841 88.0304C177.026 87.8453 177.322 87.7712 177.693 87.7712H180.876C181.247 87.6972 181.506 87.8082 181.691 87.9933Z" fill="#6F6F6E"/>
<path d="M144.929 75.3335C144.818 75.2225 144.744 75.0744 144.744 74.8893V69.2251C144.744 69.04 144.781 68.892 144.892 68.7809C145.003 68.6698 145.151 68.6328 145.337 68.6328H147.706C148.446 68.6328 149.002 68.8179 149.409 69.1881C149.816 69.5583 150.001 70.0766 150.001 70.706C150.001 71.3353 149.816 71.8906 149.409 72.2238C149.002 72.594 148.446 72.7791 147.706 72.7791H145.966V74.8523C145.966 75.0374 145.892 75.1855 145.781 75.2965C145.67 75.4076 145.522 75.4816 145.337 75.4816C145.189 75.4816 145.04 75.4446 144.929 75.3335ZM147.595 71.8536C148.446 71.8536 148.891 71.4834 148.891 70.743C148.891 70.0026 148.446 69.6324 147.595 69.6324H146.04V71.8536H147.595Z" fill="#6F6F6E"/>
<path d="M151.741 75.2214C151.371 75.0363 151.112 74.7401 150.89 74.3699C150.705 73.9997 150.594 73.5555 150.594 73.0742C150.594 72.593 150.705 72.1487 150.89 71.7785C151.075 71.4083 151.371 71.1121 151.741 70.927C152.111 70.7419 152.519 70.6309 153 70.6309C153.481 70.6309 153.888 70.7419 154.259 70.927C154.629 71.1121 154.888 71.4083 155.11 71.7785C155.295 72.1487 155.406 72.593 155.406 73.0742C155.406 73.5555 155.295 73.9997 155.11 74.3699C154.925 74.7401 154.629 75.0363 154.259 75.2214C153.888 75.4065 153.481 75.5176 153 75.5176C152.519 75.5176 152.074 75.4065 151.741 75.2214ZM153.888 74.1848C154.11 73.9257 154.185 73.5555 154.185 73.0372C154.185 72.5559 154.073 72.1487 153.888 71.8896C153.666 71.6304 153.37 71.4823 153 71.4823C152.63 71.4823 152.333 71.6304 152.111 71.8896C151.889 72.1487 151.815 72.5189 151.815 73.0372C151.815 73.5555 151.926 73.9257 152.111 74.1848C152.333 74.444 152.63 74.555 153 74.555C153.37 74.5921 153.666 74.444 153.888 74.1848Z" fill="#6F6F6E"/>
<path d="M162.884 70.7049C162.958 70.6309 163.069 70.6309 163.18 70.6309C163.329 70.6309 163.477 70.6679 163.588 70.7789C163.699 70.89 163.773 71.0011 163.773 71.1491C163.773 71.2232 163.773 71.2972 163.736 71.3713L162.144 75.1104C162.107 75.2214 161.996 75.3325 161.922 75.4065C161.811 75.4806 161.7 75.5176 161.552 75.5176C161.441 75.5176 161.329 75.4806 161.218 75.4065C161.107 75.3325 161.033 75.2584 160.996 75.1104L159.849 72.3338L158.738 75.1104C158.701 75.2214 158.59 75.3325 158.516 75.4065C158.405 75.4806 158.294 75.5176 158.146 75.5176C158.035 75.5176 157.924 75.4806 157.812 75.4065C157.701 75.3325 157.627 75.2584 157.553 75.1104L155.961 71.3713C155.924 71.2972 155.924 71.2232 155.924 71.1491C155.924 71.0011 155.998 70.89 156.11 70.7789C156.221 70.6679 156.369 70.6309 156.517 70.6309C156.628 70.6309 156.739 70.6679 156.813 70.7049C156.887 70.7419 156.961 70.853 156.998 70.964L158.146 73.8887L159.33 70.964C159.367 70.853 159.441 70.7419 159.552 70.7049C159.664 70.6309 159.738 70.6309 159.886 70.6309C159.997 70.6309 160.108 70.6679 160.219 70.7049C160.33 70.7789 160.404 70.853 160.441 70.964L161.626 73.8887L162.736 70.964C162.736 70.853 162.81 70.7789 162.884 70.7049Z" fill="#6F6F6E"/>
<path d="M168.474 74.2589C168.548 74.3329 168.585 74.444 168.585 74.5921C168.585 74.7772 168.474 74.9623 168.215 75.1104C167.993 75.2214 167.734 75.3325 167.475 75.4065C167.216 75.4806 166.92 75.5176 166.697 75.5176C165.957 75.5176 165.328 75.2955 164.883 74.8512C164.439 74.407 164.217 73.8146 164.217 73.0742C164.217 72.593 164.328 72.1487 164.513 71.7785C164.698 71.4083 164.994 71.1121 165.328 70.927C165.661 70.7049 166.068 70.6309 166.512 70.6309C166.92 70.6309 167.29 70.7419 167.623 70.927C167.956 71.1121 168.178 71.3713 168.363 71.7045C168.548 72.0376 168.623 72.4449 168.623 72.9261C168.623 73.1853 168.511 73.3334 168.252 73.3334H165.402C165.439 73.7776 165.55 74.1108 165.772 74.2959C165.994 74.481 166.29 74.5921 166.697 74.5921C166.92 74.5921 167.068 74.555 167.253 74.518C167.438 74.481 167.586 74.407 167.771 74.2959C167.956 74.1848 168.104 74.1478 168.178 74.1478C168.326 74.1478 168.437 74.1848 168.474 74.2589ZM165.772 71.7785C165.587 72.0006 165.476 72.2968 165.402 72.667H167.586C167.586 72.2598 167.475 71.9636 167.29 71.7785C167.105 71.5934 166.846 71.4823 166.549 71.4823C166.216 71.4453 165.957 71.5564 165.772 71.7785Z" fill="#6F6F6E"/>
<path d="M172.658 70.7421C172.769 70.8162 172.806 70.9643 172.806 71.1123C172.806 71.2974 172.769 71.4085 172.695 71.4825C172.621 71.5566 172.473 71.6306 172.251 71.6306L171.954 71.6676C171.584 71.7047 171.288 71.8527 171.103 72.0379C170.918 72.26 170.844 72.5191 170.844 72.8523V74.8884C170.844 75.0735 170.77 75.2216 170.659 75.3327C170.548 75.4437 170.4 75.4808 170.214 75.4808C170.029 75.4808 169.881 75.4437 169.77 75.3327C169.659 75.2216 169.585 75.0735 169.585 74.8884V71.1864C169.585 71.0013 169.659 70.8532 169.77 70.7792C169.881 70.6681 170.029 70.6311 170.177 70.6311C170.363 70.6311 170.474 70.6681 170.585 70.7792C170.696 70.8902 170.733 71.0013 170.733 71.1864V71.5566C170.844 71.2604 171.029 71.0383 171.288 70.8902C171.547 70.7421 171.806 70.6311 172.102 70.6311H172.251C172.399 70.594 172.547 70.6311 172.658 70.7421Z" fill="#6F6F6E"/>
<path d="M177.211 74.2589C177.285 74.3329 177.322 74.444 177.322 74.5921C177.322 74.7772 177.211 74.9623 176.952 75.1104C176.73 75.2214 176.471 75.3325 176.212 75.4065C175.953 75.4806 175.656 75.5176 175.434 75.5176C174.694 75.5176 174.065 75.2955 173.62 74.8512C173.176 74.407 172.954 73.8146 172.954 73.0742C172.954 72.593 173.065 72.1487 173.25 71.7785C173.435 71.4083 173.731 71.1121 174.065 70.927C174.398 70.7049 174.805 70.6309 175.249 70.6309C175.656 70.6309 176.027 70.7419 176.36 70.927C176.693 71.1121 176.915 71.3713 177.1 71.7045C177.285 72.0376 177.359 72.4449 177.359 72.9261C177.359 73.1853 177.248 73.3334 176.989 73.3334H174.139C174.176 73.7776 174.287 74.1108 174.509 74.2959C174.731 74.481 175.027 74.5921 175.434 74.5921C175.656 74.5921 175.805 74.555 175.99 74.518C176.175 74.481 176.323 74.407 176.508 74.2959C176.693 74.1848 176.841 74.1478 176.915 74.1478C177.063 74.1478 177.137 74.1848 177.211 74.2589ZM174.509 71.7785C174.324 72.0006 174.213 72.2968 174.139 72.667H176.323C176.323 72.2598 176.212 71.9636 176.027 71.7785C175.842 71.5934 175.582 71.4823 175.286 71.4823C174.953 71.4453 174.694 71.5564 174.509 71.7785Z" fill="#6F6F6E"/>
<path d="M182.727 68.7437C182.838 68.8548 182.913 68.9658 182.913 69.1509V74.9261C182.913 75.1112 182.876 75.2223 182.764 75.3334C182.653 75.4444 182.505 75.4814 182.32 75.4814C182.135 75.4814 181.987 75.4444 181.876 75.3334C181.765 75.2223 181.728 75.0742 181.728 74.9261V74.667C181.58 74.9261 181.395 75.1483 181.099 75.2963C180.802 75.4444 180.543 75.5185 180.173 75.5185C179.766 75.5185 179.396 75.4074 179.099 75.2223C178.766 75.0002 178.544 74.741 178.359 74.3338C178.174 73.9636 178.1 73.5194 178.1 73.0381C178.1 72.5568 178.174 72.1126 178.359 71.7424C178.544 71.3722 178.766 71.076 179.099 70.8909C179.433 70.7058 179.766 70.5947 180.173 70.5947C180.506 70.5947 180.802 70.6688 181.062 70.8168C181.321 70.9649 181.543 71.15 181.654 71.4092V69.1139C181.654 68.9658 181.691 68.8177 181.802 68.7067C181.913 68.5956 182.061 68.5586 182.246 68.5586C182.431 68.5586 182.616 68.6326 182.727 68.7437ZM181.395 74.1857C181.617 73.9266 181.691 73.5564 181.691 73.0751C181.691 72.5938 181.58 72.2236 181.395 71.9645C181.173 71.7053 180.876 71.5573 180.506 71.5573C180.136 71.5573 179.84 71.6683 179.618 71.9275C179.396 72.1866 179.285 72.5568 179.285 73.0381C179.285 73.5194 179.396 73.8896 179.618 74.1857C179.84 74.4819 180.136 74.5929 180.506 74.5929C180.876 74.5929 181.173 74.4449 181.395 74.1857Z" fill="#6F6F6E"/>
<path d="M190.539 70.891C190.872 71.0761 191.094 71.3722 191.279 71.7425C191.464 72.1127 191.538 72.5199 191.538 73.0382C191.538 73.5565 191.464 73.9637 191.279 74.3339C191.094 74.7041 190.872 75.0003 190.539 75.2224C190.206 75.4445 189.872 75.5186 189.465 75.5186C189.132 75.5186 188.836 75.4445 188.54 75.2964C188.243 75.1483 188.058 74.9262 187.91 74.6671V74.9262C187.91 75.1113 187.873 75.2224 187.762 75.3335C187.651 75.4445 187.503 75.4815 187.318 75.4815C187.133 75.4815 186.985 75.4445 186.874 75.3335C186.763 75.2224 186.726 75.0743 186.726 74.9262V69.151C186.726 68.9659 186.8 68.8548 186.911 68.7438C187.022 68.6327 187.17 68.5957 187.355 68.5957C187.54 68.5957 187.688 68.6327 187.799 68.7438C187.91 68.8548 187.947 68.9659 187.947 69.151V71.4093C188.095 71.1501 188.28 70.965 188.54 70.8169C188.799 70.6689 189.095 70.5948 189.428 70.5948C189.872 70.5948 190.243 70.7059 190.539 70.891ZM190.02 74.1858C190.243 73.9267 190.354 73.5194 190.354 73.0382C190.354 72.5569 190.243 72.1867 190.057 71.9276C189.872 71.6684 189.539 71.5574 189.169 71.5574C188.799 71.5574 188.503 71.7054 188.28 71.9646C188.058 72.2237 187.984 72.5939 187.984 73.0752C187.984 73.5565 188.095 73.9267 188.28 74.1858C188.503 74.445 188.799 74.593 189.169 74.593C189.502 74.593 189.798 74.445 190.02 74.1858Z" fill="#6F6F6E"/>
<path d="M195.944 70.7048C196.018 70.6678 196.129 70.6308 196.24 70.6308C196.388 70.6308 196.536 70.6678 196.647 70.7789C196.758 70.8899 196.832 71.001 196.832 71.1491C196.832 71.2231 196.795 71.2971 196.758 71.3712L194.13 76.8873C194.019 77.1094 193.834 77.2204 193.611 77.2204C193.463 77.2204 193.315 77.1834 193.204 77.0724C193.093 76.9613 193.019 76.8502 193.019 76.7021C193.019 76.6281 193.056 76.5541 193.093 76.443L193.76 75.0732L191.983 71.3342C191.946 71.2601 191.946 71.1861 191.946 71.112C191.946 70.964 192.02 70.8529 192.131 70.7418C192.242 70.6308 192.39 70.5938 192.575 70.5938C192.686 70.5938 192.797 70.6308 192.871 70.6678C192.945 70.7048 193.019 70.8159 193.093 70.9269L194.426 73.9256L195.759 70.964C195.796 70.8529 195.87 70.7789 195.944 70.7048Z" fill="#6F6F6E"/>
<path d="M188.169 94.361C187.91 94.1018 187.762 93.7686 187.762 93.3614V83.3659C187.762 82.9586 187.91 82.6254 188.169 82.3663C188.429 82.1072 188.799 81.9961 189.243 81.9961C189.687 81.9961 190.057 82.1072 190.317 82.3663C190.576 82.6254 190.724 82.9586 190.724 83.3659V93.3614C190.724 93.8057 190.576 94.1388 190.317 94.361C190.057 94.6201 189.687 94.7312 189.243 94.7312C188.799 94.7682 188.429 94.6201 188.169 94.361Z" fill="#6F6F6E"/>
<path d="M200.016 94.3611C199.757 94.102 199.609 93.7688 199.609 93.3616V84.3286H196.61C195.685 84.3286 195.24 83.9584 195.24 83.1809C195.24 82.4405 195.685 82.0703 196.61 82.0703H205.495C206.421 82.0703 206.865 82.4405 206.865 83.1809C206.865 83.9584 206.421 84.3286 205.495 84.3286H202.496V93.3616C202.496 93.7688 202.348 94.102 202.089 94.3611C201.83 94.6203 201.46 94.7314 201.016 94.7314C200.645 94.7314 200.275 94.6203 200.016 94.3611Z" fill="#6F6F6E"/>
<path d="M222.08 93.5094C222.08 93.8426 221.932 94.1388 221.673 94.3609C221.414 94.583 221.081 94.6941 220.711 94.6941C220.488 94.6941 220.266 94.62 220.044 94.509C219.822 94.3979 219.674 94.2128 219.563 93.9537L218.6 91.8435H212.307L211.344 93.9537C211.233 94.2128 211.085 94.3979 210.863 94.509C210.678 94.62 210.419 94.6941 210.197 94.6941C209.826 94.6941 209.53 94.583 209.234 94.3609C208.938 94.1388 208.79 93.8426 208.79 93.5094C208.79 93.3613 208.827 93.1392 208.938 92.9541L213.936 82.8475C214.084 82.5513 214.269 82.3292 214.565 82.1811C214.824 82.033 215.12 81.959 215.454 81.959C215.787 81.959 216.083 82.033 216.342 82.1811C216.601 82.3292 216.823 82.5513 216.971 82.8105L221.969 92.9171C222.043 93.1762 222.08 93.3613 222.08 93.5094ZM213.306 89.7703H217.601L215.454 85.1428L213.306 89.7703Z" fill="#6F6F6E"/>
<path d="M227.374 94.2868C227.152 94.0647 227.004 93.7315 227.004 93.3243V83.3287C227.004 82.9215 227.115 82.5883 227.411 82.3292C227.67 82.07 228.004 81.959 228.485 81.959C228.929 81.959 229.262 82.07 229.558 82.3292C229.818 82.5883 229.966 82.9215 229.966 83.3287V92.3618H234.63C235.519 92.3618 236 92.732 236 93.5094C236 94.2498 235.556 94.62 234.63 94.62H228.337C227.93 94.657 227.596 94.546 227.374 94.2868Z" fill="#6F6F6E"/>
<path d="M238.098 83.7479C237.809 83.7479 237.54 83.6955 237.289 83.5906C237.042 83.4858 236.826 83.3416 236.643 83.1581C236.459 82.9746 236.315 82.7592 236.21 82.5121C236.105 82.2612 236.053 81.9915 236.053 81.7032C236.053 81.4148 236.105 81.1471 236.21 80.8999C236.315 80.6527 236.459 80.4374 236.643 80.2539C236.826 80.0704 237.042 79.9262 237.289 79.8213C237.536 79.7165 237.805 79.6641 238.098 79.6641C238.386 79.6641 238.654 79.7165 238.901 79.8213C239.148 79.9262 239.363 80.0704 239.547 80.2539C239.73 80.4374 239.875 80.6527 239.979 80.8999C240.084 81.1471 240.137 81.4148 240.137 81.7032C240.137 81.9915 240.084 82.2612 239.979 82.5121C239.875 82.7592 239.73 82.9746 239.547 83.1581C239.363 83.3416 239.148 83.4858 238.901 83.5906C238.654 83.6955 238.386 83.7479 238.098 83.7479ZM238.098 83.4165C238.341 83.4165 238.566 83.3734 238.772 83.2873C238.978 83.2011 239.156 83.0813 239.305 82.9278C239.459 82.7705 239.577 82.5888 239.659 82.3829C239.745 82.1732 239.788 81.9466 239.788 81.7032C239.788 81.4598 239.745 81.2351 239.659 81.0291C239.577 80.8194 239.459 80.6377 239.305 80.4842C239.156 80.3307 238.978 80.2108 238.772 80.1247C238.566 80.0386 238.341 79.9955 238.098 79.9955C237.854 79.9955 237.629 80.0386 237.423 80.1247C237.218 80.2108 237.038 80.3307 236.884 80.4842C236.731 80.6377 236.611 80.8194 236.525 81.0291C236.442 81.2351 236.401 81.4598 236.401 81.7032C236.401 81.9466 236.442 82.1732 236.525 82.3829C236.611 82.5888 236.731 82.7705 236.884 82.9278C237.038 83.0813 237.218 83.2011 237.423 83.2873C237.629 83.3734 237.854 83.4165 238.098 83.4165ZM237.188 82.8884V80.5123H238.255C238.528 80.5123 238.736 80.5797 238.878 80.7145C239.024 80.8456 239.097 81.0141 239.097 81.2201C239.097 81.4373 239.026 81.6039 238.884 81.72C238.745 81.8324 238.549 81.8885 238.294 81.8885L238.451 81.8268C238.575 81.8268 238.676 81.8586 238.755 81.9222C238.833 81.9822 238.895 82.1039 238.94 82.2874L239.12 82.8884H238.474L238.283 82.2031C238.26 82.1282 238.225 82.0777 238.176 82.0514C238.131 82.0252 238.077 82.0121 238.013 82.0121H237.727L237.828 81.9447V82.8884H237.188ZM237.822 81.5459H238.165C238.277 81.5459 238.36 81.5234 238.412 81.4785C238.468 81.4335 238.496 81.3605 238.496 81.2594C238.496 81.1583 238.468 81.0853 238.412 81.0403C238.356 80.9954 238.274 80.9729 238.165 80.9729H237.822V81.5459Z" fill="#6F6F6E"/>
<path d="M144.781 112.131C144.633 111.983 144.559 111.761 144.559 111.502V101.543C144.559 101.284 144.633 101.099 144.781 100.951C144.929 100.803 145.152 100.729 145.411 100.729H151.482C152.037 100.729 152.297 100.951 152.297 101.432C152.297 101.876 152.037 102.135 151.482 102.135H146.262V105.763H151.149C151.704 105.763 151.963 105.985 151.963 106.467C151.963 106.911 151.704 107.17 151.149 107.17H146.262V111.576C146.262 111.835 146.188 112.057 146.04 112.205C145.892 112.353 145.67 112.427 145.411 112.427C145.115 112.353 144.929 112.279 144.781 112.131Z" fill="#6F6F6E"/>
<path d="M170.696 111.612C170.696 111.834 170.622 111.983 170.437 112.131C170.251 112.279 170.066 112.353 169.844 112.353C169.696 112.353 169.548 112.316 169.437 112.242C169.289 112.168 169.215 112.057 169.141 111.908L168.03 109.465H161.811L160.7 111.908C160.626 112.057 160.515 112.168 160.404 112.242C160.256 112.316 160.145 112.353 159.997 112.353C159.775 112.353 159.552 112.279 159.404 112.131C159.219 111.983 159.145 111.797 159.145 111.612C159.145 111.538 159.182 111.427 159.219 111.279L163.995 101.172C164.069 100.987 164.217 100.876 164.365 100.765C164.55 100.654 164.735 100.617 164.92 100.617C165.106 100.617 165.291 100.654 165.476 100.765C165.661 100.876 165.772 100.987 165.846 101.172L170.622 111.279C170.696 111.427 170.696 111.538 170.696 111.612ZM162.44 108.095H167.401L164.92 102.69L162.44 108.095Z" fill="#6F6F6E"/>
<path d="M190.798 100.913C190.946 101.061 191.02 101.283 191.02 101.542V111.575C191.02 111.834 190.946 112.019 190.798 112.167C190.65 112.315 190.465 112.389 190.206 112.389C189.983 112.389 189.798 112.315 189.65 112.167C189.502 112.019 189.428 111.834 189.428 111.575V103.949L186.096 110.057C185.874 110.427 185.615 110.612 185.282 110.612C184.949 110.612 184.652 110.427 184.467 110.057L181.135 104.023V111.575C181.135 111.834 181.061 112.019 180.913 112.167C180.765 112.315 180.58 112.389 180.321 112.389C180.099 112.389 179.877 112.315 179.766 112.167C179.618 112.019 179.544 111.834 179.544 111.575V101.542C179.544 101.283 179.618 101.098 179.766 100.913C179.914 100.765 180.136 100.691 180.395 100.691C180.728 100.691 181.024 100.876 181.247 101.283L185.319 108.761L189.354 101.283C189.576 100.876 189.835 100.691 190.168 100.691C190.428 100.654 190.613 100.728 190.798 100.913Z" fill="#6F6F6E"/>
<path d="M201.423 112.131C201.275 111.983 201.201 111.76 201.201 111.501V101.506C201.201 101.247 201.275 101.062 201.423 100.876C201.571 100.728 201.793 100.654 202.052 100.654C202.311 100.654 202.533 100.728 202.682 100.876C202.83 101.025 202.904 101.247 202.904 101.506V111.501C202.904 111.76 202.83 111.983 202.682 112.131C202.533 112.279 202.311 112.353 202.015 112.353C201.756 112.353 201.571 112.279 201.423 112.131Z" fill="#6F6F6E"/>
<path d="M212.936 112.057C212.788 111.909 212.714 111.723 212.714 111.501V101.506C212.714 101.247 212.788 101.062 212.936 100.876C213.084 100.728 213.306 100.654 213.565 100.654C213.825 100.654 214.047 100.728 214.195 100.876C214.343 101.025 214.417 101.247 214.417 101.506V110.872H219.563C219.822 110.872 220.007 110.946 220.155 111.057C220.303 111.168 220.377 111.353 220.377 111.575C220.377 111.797 220.303 111.983 220.155 112.094C220.007 112.205 219.822 112.279 219.563 112.279H213.491C213.306 112.279 213.121 112.205 212.936 112.057Z" fill="#6F6F6E"/>
<path d="M235.186 100.654C235.408 100.654 235.556 100.728 235.741 100.876C235.889 101.025 236 101.21 236 101.432C236 101.617 235.926 101.802 235.778 101.95L231.78 106.763V111.501C231.78 111.76 231.706 111.983 231.521 112.131C231.372 112.279 231.15 112.353 230.891 112.353C230.632 112.353 230.41 112.279 230.262 112.131C230.114 111.983 230.04 111.76 230.04 111.501V106.763L226.041 101.95C225.893 101.802 225.819 101.617 225.819 101.432C225.819 101.21 225.893 101.062 226.041 100.876C226.19 100.728 226.375 100.654 226.597 100.654C226.819 100.654 227.004 100.765 227.189 100.95L230.891 105.43L234.593 100.95C234.778 100.765 234.963 100.654 235.186 100.654Z" fill="#6F6F6E"/>
<defs>
<linearGradient id="paint0_linear_814_2790" x1="119.903" y1="73.0007" x2="119.903" y2="112.352" gradientUnits="userSpaceOnUse">
<stop stop-color="#FCC600"/>
<stop offset="0.3393" stop-color="#EF8E33"/>
<stop offset="0.6809" stop-color="#E86432"/>
<stop offset="1" stop-color="#E95364"/>
</linearGradient>
</defs>
</svg>
