<svg width="26" height="22" viewBox="0 0 26 22" fill="none" xmlns="http://www.w3.org/2000/svg">
<path d="M25.7622 4.49983L21.4289 0.233528C21.2767 0.0839865 21.0704 0 20.8553 0C20.6403 0 20.434 0.0839865 20.2818 0.233528L8.76972 11.5658L5.71866 8.5627C5.56645 8.41315 5.36018 8.32917 5.14512 8.32917C4.93007 8.32917 4.7238 8.41315 4.57158 8.5627L0.237235 12.829C0.0853197 12.9788 0 13.1819 0 13.3936C0 13.6053 0.0853197 13.8083 0.237235 13.9582L8.17084 21.7662C8.32297 21.9158 8.52918 21.9999 8.74422 22C8.75395 22 8.76267 21.9947 8.77206 21.9947C8.78012 21.9947 8.78884 21.9993 8.79723 21.9993C9.00557 21.9993 9.21191 21.9214 9.3706 21.7655L25.7622 5.62899C25.8376 5.55489 25.8974 5.46688 25.9382 5.37C25.979 5.27313 26 5.16928 26 5.06441C26 4.95954 25.979 4.8557 25.9382 4.75882C25.8974 4.66195 25.8376 4.57394 25.7622 4.49983Z" fill="url(#paint0_linear_704_4970)"/>
<defs>
<linearGradient id="paint0_linear_704_4970" x1="4.225" y1="11.7332" x2="19.3928" y2="11.8293" gradientUnits="userSpaceOnUse">
<stop stop-color="#2B82CC"/>
<stop offset="1" stop-color="#51C9F3"/>
</linearGradient>
</defs>
</svg>
