<svg width="196" height="228" viewBox="0 0 196 228" fill="none" xmlns="http://www.w3.org/2000/svg">
<rect width="196" height="228" rx="32" fill="white"/>
<path d="M40.875 207.75H154.125C159.131 207.75 163.932 205.761 167.472 202.222C171.011 198.682 173 193.881 173 188.875V85.0625L125.812 66.1875L106.938 19H40.875C35.869 19 31.0681 20.9886 27.5284 24.5284C23.9886 28.0681 22 32.869 22 37.875V188.875C22 193.881 23.9886 198.682 27.5284 202.222C31.0681 205.761 35.869 207.75 40.875 207.75Z" fill="url(#paint0_linear_735_5611)"/>
<rect x="53" y="64" width="90" height="10" rx="4" fill="white"/>
<rect x="53" y="89" width="90" height="10" rx="4" fill="white"/>
<rect x="53" y="114" width="90" height="10" rx="4" fill="white"/>
<path d="M40.875 207.75H154.125C159.131 207.75 163.932 205.761 167.472 202.222C171.011 198.682 173 193.881 173 188.875V85.0625L125.812 66.1875L106.938 19H40.875C35.869 19 31.0681 20.9886 27.5284 24.5284C23.9886 28.0681 22 32.869 22 37.875V188.875C22 193.881 23.9886 198.682 27.5284 202.222C31.0681 205.761 35.869 207.75 40.875 207.75Z" fill="url(#paint1_radial_735_5611)" fill-opacity="0.5"/>
<path d="M106.938 70.9062V19L173 85.0625H121.094C117.339 85.0625 113.739 83.571 111.084 80.9162C108.429 78.2614 106.938 74.6607 106.938 70.9062Z" fill="url(#paint2_linear_735_5611)"/>
<path d="M98 184.444C108.741 173.704 114.111 165.111 114.111 158.667C114.111 149 110.889 149 107.667 149C104.444 149 101.119 152.496 101.222 158.667C101.332 165.266 106.565 174.381 109.278 178C114.111 184.444 117.333 186.056 120.556 181.222L127 171.556C128.074 180.148 131.296 184.444 136.667 184.444C138.374 184.444 145.17 178 146.333 178C148 178 151.223 180.148 156 184.444" stroke="white" stroke-width="6.44444" stroke-linecap="round" stroke-linejoin="round"/>
<defs>
<linearGradient id="paint0_linear_735_5611" x1="46.5375" y1="119.666" x2="134.629" y2="120.043" gradientUnits="userSpaceOnUse">
<stop stop-color="#2B82CC"/>
<stop offset="1" stop-color="#51C9F3"/>
</linearGradient>
<radialGradient id="paint1_radial_735_5611" cx="0" cy="0" r="1" gradientUnits="userSpaceOnUse" gradientTransform="translate(179.295 24.8984) rotate(133.623) scale(118.554 69.9975)">
<stop offset="0.362" stop-color="#4A43CB"/>
<stop offset="1" stop-color="#4A43CB" stop-opacity="0"/>
</radialGradient>
<linearGradient id="paint2_linear_735_5611" x1="107" y1="91" x2="155.619" y2="54.2776" gradientUnits="userSpaceOnUse">
<stop stop-color="#A4D5FF"/>
<stop offset="1" stop-color="#51C9F3"/>
</linearGradient>
</defs>
</svg>
